<svg width="22" height="23" viewBox="0 0 22 23" fill="none" xmlns="http://www.w3.org/2000/svg">
<g clip-path="url(#clip0_1_791)">
<path d="M3.01832 11.2259C2.2683 10.3282 1.85735 9.19565 1.85718 8.02589C1.85718 5.26474 4.11546 2.99731 6.88575 2.99731H11.4572C14.2183 2.99731 16.4858 5.26474 16.4858 8.02589C16.4858 10.787 14.2275 13.0545 11.4572 13.0545H9.17146" stroke="#FF6600" stroke-width="2" stroke-linecap="round" stroke-linejoin="round"/>
<path d="M18.9817 11.2259C19.7317 12.1236 20.1427 13.2561 20.1429 14.4259C20.1429 17.1871 17.8846 19.4545 15.1143 19.4545H10.5429C7.78171 19.4545 5.51428 17.1871 5.51428 14.4259C5.51428 11.6648 7.77257 9.39734 10.5429 9.39734H12.8286" stroke="#FF6600" stroke-width="2" stroke-linecap="round" stroke-linejoin="round"/>
</g>
<defs>
<clipPath id="clip0_1_791">
<rect width="21.9429" height="21.9429" fill="white" transform="translate(0.0285645 0.254517)"/>
</clipPath>
</defs>
</svg>
