<svg width="298" height="302" viewBox="0 0 298 302" fill="none" xmlns="http://www.w3.org/2000/svg">
<g opacity="0.1">
<g filter="url(#filter0_b_1_1810)">
<path d="M142.984 -88.3796C145.571 -88.3997 147.429 -88.4132 148.891 -88.3149C150.338 -88.2176 151.277 -88.0163 152.043 -87.6692C153.88 -86.8362 155.356 -85.3723 156.203 -83.5409C156.556 -82.7779 156.765 -81.841 156.873 -80.395C156.983 -78.9335 156.984 -77.0757 156.984 -74.4884L156.984 170.351C156.984 172.939 156.983 174.797 156.873 176.26C156.765 177.707 156.556 178.648 156.203 179.416C155.356 181.261 153.88 182.747 152.043 183.609C151.277 183.968 150.338 184.184 148.891 184.304C147.429 184.425 145.571 184.44 142.984 184.46L-199.135 187.117C-201.722 187.137 -203.58 187.151 -205.042 187.052C-206.489 186.955 -207.428 186.754 -208.193 186.407C-210.031 185.574 -211.507 184.11 -212.354 182.278C-212.707 181.515 -212.915 180.579 -213.024 179.132C-213.134 177.671 -213.135 175.813 -213.135 173.226L-213.135 -71.6138C-213.135 -74.2012 -213.134 -76.059 -213.024 -77.5222C-212.915 -78.9699 -212.707 -79.91 -212.354 -80.6785C-211.507 -82.5231 -210.031 -84.0098 -208.193 -84.8714C-207.428 -85.2304 -206.489 -85.4463 -205.042 -85.5661C-203.58 -85.6871 -201.722 -85.7025 -199.135 -85.7226L142.984 -88.3796Z" stroke="#FF6600" stroke-width="3"/>
</g>
<g filter="url(#filter1_b_1_1810)">
<path d="M186.651 -22.3074C189.238 -22.3275 191.096 -22.3409 192.558 -22.2426C194.005 -22.1454 194.944 -21.944 195.709 -21.5969C197.547 -20.7639 199.022 -19.3 199.87 -17.4686C200.223 -16.7056 200.431 -15.7688 200.54 -14.3227C200.65 -12.8612 200.651 -11.0034 200.651 -8.41609L200.651 236.424C200.651 239.011 200.65 240.869 200.54 242.332C200.431 243.78 200.223 244.72 199.87 245.488C199.022 247.333 197.547 248.82 195.709 249.681C194.944 250.04 194.005 250.256 192.558 250.376C191.096 250.497 189.238 250.512 186.651 250.532L-155.468 253.189C-158.056 253.21 -159.913 253.223 -161.376 253.125C-162.822 253.027 -163.761 252.826 -164.527 252.479C-166.365 251.646 -167.84 250.182 -168.687 248.351C-169.04 247.588 -169.249 246.651 -169.357 245.205C-169.467 243.743 -169.468 241.885 -169.468 239.298L-169.468 -5.54158C-169.468 -8.1289 -169.467 -9.98673 -169.357 -11.4499C-169.249 -12.8977 -169.04 -13.8378 -168.687 -14.6062C-167.84 -16.4508 -166.365 -17.9376 -164.527 -18.7992C-163.761 -19.1581 -162.822 -19.3741 -161.376 -19.4938C-159.913 -19.6148 -158.056 -19.6302 -155.468 -19.6503L186.651 -22.3074Z" stroke="#FF6600" stroke-width="3"/>
</g>
<g filter="url(#filter2_b_1_1810)">
<path d="M229.94 43.803C232.527 43.7829 234.385 43.7695 235.847 43.8677C237.294 43.965 238.233 44.1664 238.998 44.5134C240.836 45.3465 242.312 46.8103 243.159 48.6417C243.512 49.4047 243.721 50.3416 243.829 51.7877C243.939 53.2491 243.94 55.1069 243.94 57.6943L243.94 302.534C243.94 305.121 243.939 306.979 243.829 308.442C243.721 309.89 243.512 310.83 243.159 311.599C242.312 313.443 240.836 314.93 238.998 315.792C238.233 316.151 237.294 316.366 235.847 316.486C234.385 316.607 232.527 316.623 229.94 316.643L-112.179 319.3C-114.766 319.32 -116.624 319.333 -118.086 319.235C-119.533 319.138 -120.472 318.936 -121.238 318.589C-123.075 317.756 -124.551 316.292 -125.398 314.461C-125.751 313.698 -125.96 312.761 -126.068 311.315C-126.178 309.854 -126.179 307.996 -126.179 305.408L-126.179 60.5688C-126.179 57.9815 -126.178 56.1236 -126.068 54.6604C-125.96 53.2127 -125.751 52.2726 -125.398 51.5041C-124.551 49.6596 -123.075 48.1728 -121.237 47.3112C-120.472 46.9522 -119.533 46.7363 -118.086 46.6165C-116.624 46.4956 -114.766 46.4801 -112.179 46.46L229.94 43.803Z" stroke="#FF6600" stroke-width="3"/>
</g>
<g filter="url(#filter3_b_1_1810)">
<path d="M281.887 86.8145C284.474 86.7944 286.332 86.7809 287.794 86.8792C289.241 86.9765 290.179 87.1778 290.945 87.5249C292.783 88.3579 294.258 89.8218 295.106 91.6532C295.459 92.4162 295.667 93.3531 295.776 94.7991C295.885 96.2606 295.886 98.1184 295.886 100.706L295.886 345.545C295.886 348.133 295.885 349.991 295.776 351.454C295.667 352.902 295.459 353.842 295.106 354.61C294.258 356.455 292.783 357.941 290.945 358.803C290.179 359.162 289.241 359.378 287.794 359.498C286.332 359.619 284.474 359.634 281.887 359.654L-60.2325 362.311C-62.8198 362.331 -64.6776 362.345 -66.1398 362.246C-67.5867 362.149 -68.5251 361.948 -69.2908 361.601C-71.1288 360.768 -72.6041 359.304 -73.4513 357.473C-73.8043 356.709 -74.013 355.773 -74.1215 354.327C-74.2311 352.865 -74.2321 351.007 -74.2321 348.42L-74.2321 103.58C-74.2321 100.993 -74.2311 99.1351 -74.1215 97.6719C-74.013 96.2242 -73.8043 95.2841 -73.4513 94.5156C-72.6041 92.671 -71.1288 91.1842 -69.2908 90.3227C-68.5251 89.9637 -67.5867 89.7477 -66.1398 89.628C-64.6775 89.507 -62.8198 89.4916 -60.2325 89.4715L281.887 86.8145Z" stroke="#FF6600" stroke-width="3"/>
</g>
</g>
<defs>
<filter id="filter0_b_1_1810" x="-245.271" y="-120.53" width="434.39" height="339.798" filterUnits="userSpaceOnUse" color-interpolation-filters="sRGB">
<feFlood flood-opacity="0" result="BackgroundImageFix"/>
<feGaussianBlur in="BackgroundImage" stdDeviation="15.318"/>
<feComposite in2="SourceAlpha" operator="in" result="effect1_backgroundBlur_1_1810"/>
<feBlend mode="normal" in="SourceGraphic" in2="effect1_backgroundBlur_1_1810" result="shape"/>
</filter>
<filter id="filter1_b_1_1810" x="-201.604" y="-54.4578" width="434.39" height="339.798" filterUnits="userSpaceOnUse" color-interpolation-filters="sRGB">
<feFlood flood-opacity="0" result="BackgroundImageFix"/>
<feGaussianBlur in="BackgroundImage" stdDeviation="15.318"/>
<feComposite in2="SourceAlpha" operator="in" result="effect1_backgroundBlur_1_1810"/>
<feBlend mode="normal" in="SourceGraphic" in2="effect1_backgroundBlur_1_1810" result="shape"/>
</filter>
<filter id="filter2_b_1_1810" x="-158.315" y="11.6526" width="434.39" height="339.798" filterUnits="userSpaceOnUse" color-interpolation-filters="sRGB">
<feFlood flood-opacity="0" result="BackgroundImageFix"/>
<feGaussianBlur in="BackgroundImage" stdDeviation="15.318"/>
<feComposite in2="SourceAlpha" operator="in" result="effect1_backgroundBlur_1_1810"/>
<feBlend mode="normal" in="SourceGraphic" in2="effect1_backgroundBlur_1_1810" result="shape"/>
</filter>
<filter id="filter3_b_1_1810" x="-106.368" y="54.664" width="434.39" height="339.798" filterUnits="userSpaceOnUse" color-interpolation-filters="sRGB">
<feFlood flood-opacity="0" result="BackgroundImageFix"/>
<feGaussianBlur in="BackgroundImage" stdDeviation="15.318"/>
<feComposite in2="SourceAlpha" operator="in" result="effect1_backgroundBlur_1_1810"/>
<feBlend mode="normal" in="SourceGraphic" in2="effect1_backgroundBlur_1_1810" result="shape"/>
</filter>
</defs>
</svg>
