<svg width="309" height="164" viewBox="0 0 309 164" fill="none" xmlns="http://www.w3.org/2000/svg">
<path d="M87.972 67.7318H6.05513C2.71906 67.7318 0 64.996 0 61.6394V46.4979C0 43.1413 2.71906 40.4055 6.05513 40.4055H87.972C91.3081 40.4055 94.0271 43.1413 94.0271 46.4979V61.6394C94.0271 64.996 91.3081 67.7318 87.972 67.7318ZM6.05513 41.4577C3.29424 41.4577 1.04579 43.72 1.04579 46.4979V61.6394C1.04579 64.4173 3.29424 66.6796 6.05513 66.6796H87.972C90.7329 66.6796 92.9813 64.4173 92.9813 61.6394V46.4979C92.9813 43.72 90.7329 41.4577 87.972 41.4577H6.05513Z" fill="#FF6600" fill-opacity="0.08"/>
<path d="M73.7597 49.0232H28.456C28.1632 49.0232 27.9331 48.7917 27.9331 48.4971C27.9331 48.2025 28.1632 47.971 28.456 47.971H73.7597C74.0525 47.971 74.2826 48.2025 74.2826 48.4971C74.2826 48.7917 74.042 49.0232 73.7597 49.0232Z" fill="#FF6600" fill-opacity="0.08"/>
<path d="M73.7597 60.987H28.456C28.1632 60.987 27.9331 60.7555 27.9331 60.4609C27.9331 60.1663 28.1632 59.9348 28.456 59.9348H73.7597C74.0525 59.9348 74.2826 60.1663 74.2826 60.4609C74.2826 60.745 74.042 60.987 73.7597 60.987Z" fill="#FF6600" fill-opacity="0.08"/>
<path d="M80.6724 55.0104H28.456C28.1632 55.0104 27.9331 54.7789 27.9331 54.4843C27.9331 54.1896 28.1632 53.9582 28.456 53.9582H80.6724C80.9652 53.9582 81.1953 54.1896 81.1953 54.4843C81.1953 54.7684 80.9547 55.0104 80.6724 55.0104Z" fill="#FF6600" fill-opacity="0.08"/>
<path d="M17.1719 60.9134C13.1979 60.9134 9.95593 57.662 9.95593 53.653C9.95593 49.6546 13.1874 46.3927 17.1719 46.3927C21.1459 46.3927 24.3879 49.644 24.3879 53.653C24.3774 57.662 21.1459 60.9134 17.1719 60.9134ZM17.1719 47.4554C13.7731 47.4554 11.0017 50.2438 11.0017 53.6635C11.0017 57.0833 13.7731 59.8717 17.1719 59.8717C20.5707 59.8717 23.3421 57.0833 23.3421 53.6635C23.3316 50.2438 20.5707 47.4554 17.1719 47.4554Z" fill="#FF6600" fill-opacity="0.08"/>
<path d="M16.5757 56.4835C16.4502 56.4835 16.3143 56.4309 16.2202 56.3362L12.8841 53.169C12.6749 52.9691 12.6645 52.6323 12.8632 52.4219C13.0619 52.2115 13.3965 52.2009 13.6057 52.4009L16.5653 55.2208L20.7275 50.9909C20.9262 50.7804 21.2609 50.7804 21.47 50.9909C21.6792 51.1908 21.6792 51.5275 21.47 51.738L16.9522 56.3257C16.8476 56.4309 16.7117 56.4835 16.5757 56.4835Z" fill="#FF6600" fill-opacity="0.08"/>
<path d="M208.363 85.4303H100.908C100.616 85.4303 100.385 85.1988 100.385 84.9042V6.23971C100.385 5.94508 100.616 5.71359 100.908 5.71359H208.363C208.656 5.71359 208.886 5.94508 208.886 6.23971V84.9042C208.886 85.1988 208.656 85.4303 208.363 85.4303ZM101.431 84.378H207.841V6.76582H101.431V84.378Z" fill="#FF6600" fill-opacity="0.08"/>
<path d="M116.313 6.76581H113.04C112.747 6.76581 112.517 6.53433 112.517 6.2397V2.17811C112.517 0.97857 113.489 0 114.682 0C115.874 0 116.846 0.97857 116.846 2.17811V6.2397C116.836 6.53433 116.595 6.76581 116.313 6.76581ZM113.552 5.71359H115.78V2.17811C115.78 1.55729 115.278 1.05223 114.661 1.05223C114.044 1.05223 113.542 1.55729 113.542 2.17811V5.71359H113.552Z" fill="#FF6600" fill-opacity="0.08"/>
<path d="M196.243 6.76581H192.969C192.677 6.76581 192.447 6.53433 192.447 6.2397V2.17811C192.447 0.97857 193.419 0 194.611 0C195.804 0 196.776 0.97857 196.776 2.17811V6.2397C196.766 6.53433 196.536 6.76581 196.243 6.76581ZM193.492 5.71359H195.72V2.17811C195.72 1.55729 195.218 1.05223 194.601 1.05223C193.984 1.05223 193.482 1.55729 193.482 2.17811V5.71359H193.492Z" fill="#FF6600" fill-opacity="0.08"/>
<path d="M123.037 27.884H110.394C110.101 27.884 109.871 27.6525 109.871 27.3579V14.647C109.871 14.3524 110.101 14.1209 110.394 14.1209H123.037C123.33 14.1209 123.56 14.3524 123.56 14.647V27.3579C123.56 27.6525 123.33 27.884 123.037 27.884ZM110.927 26.8318H122.525V15.1731H110.927V26.8318Z" fill="#FF6600" fill-opacity="0.08"/>
<path d="M123.037 40.6054H110.394C110.101 40.6054 109.871 40.3739 109.871 40.0793V27.3579C109.871 27.0633 110.101 26.8318 110.394 26.8318H123.037C123.33 26.8318 123.56 27.0633 123.56 27.3579V40.0793C123.56 40.3739 123.33 40.6054 123.037 40.6054ZM110.927 39.5532H122.525V27.884H110.927V39.5532Z" fill="#FF6600" fill-opacity="0.08"/>
<path d="M123.037 53.3163H110.394C110.101 53.3163 109.871 53.0848 109.871 52.7902V40.0793C109.871 39.7847 110.101 39.5532 110.394 39.5532H123.037C123.33 39.5532 123.56 39.7847 123.56 40.0793V52.8007C123.56 53.0848 123.33 53.3163 123.037 53.3163ZM110.927 52.2641H122.525V40.6054H110.927V52.2641Z" fill="#FF6600" fill-opacity="0.08"/>
<path d="M123.037 66.0377H110.394C110.101 66.0377 109.871 65.8062 109.871 65.5116V52.7902C109.871 52.4956 110.101 52.2641 110.394 52.2641H123.037C123.33 52.2641 123.56 52.4956 123.56 52.7902V65.5116C123.56 65.8062 123.33 66.0377 123.037 66.0377ZM110.927 64.9855H122.525V53.3163H110.927V64.9855Z" fill="#FF6600" fill-opacity="0.08"/>
<path d="M123.037 78.7591H110.394C110.101 78.7591 109.871 78.5276 109.871 78.233V65.5116C109.871 65.217 110.101 64.9855 110.394 64.9855H123.037C123.33 64.9855 123.56 65.217 123.56 65.5116V78.233C123.56 78.5171 123.33 78.7591 123.037 78.7591ZM110.927 77.7069H122.525V66.0377H110.927V77.7069Z" fill="#FF6600" fill-opacity="0.08"/>
<path d="M135.681 27.884H123.037C122.745 27.884 122.515 27.6525 122.515 27.3579V14.647C122.515 14.3524 122.745 14.1209 123.037 14.1209H135.681C135.974 14.1209 136.204 14.3524 136.204 14.647V27.3579C136.204 27.6525 135.963 27.884 135.681 27.884ZM123.56 26.8318H135.158V15.1731H123.56V26.8318Z" fill="#FF6600" fill-opacity="0.08"/>
<path d="M148.314 27.884H135.67C135.378 27.884 135.148 27.6525 135.148 27.3579V14.647C135.148 14.3524 135.378 14.1209 135.67 14.1209H148.314C148.607 14.1209 148.837 14.3524 148.837 14.647V27.3579C148.837 27.6525 148.607 27.884 148.314 27.884ZM136.204 26.8318H147.802V15.1731H136.204V26.8318Z" fill="#FF6600" fill-opacity="0.08"/>
<path d="M160.958 27.884H148.314C148.021 27.884 147.791 27.6525 147.791 27.3579V14.647C147.791 14.3524 148.021 14.1209 148.314 14.1209H160.958C161.251 14.1209 161.481 14.3524 161.481 14.647V27.3579C161.481 27.6525 161.251 27.884 160.958 27.884ZM148.837 26.8318H160.435V15.1731H148.837V26.8318Z" fill="#FF6600" fill-opacity="0.08"/>
<path d="M173.601 27.884H160.958C160.665 27.884 160.435 27.6525 160.435 27.3579V14.647C160.435 14.3524 160.665 14.1209 160.958 14.1209H173.601C173.894 14.1209 174.124 14.3524 174.124 14.647V27.3579C174.124 27.6525 173.884 27.884 173.601 27.884ZM161.481 26.8318H173.078V15.1731H161.481V26.8318Z" fill="#FF6600" fill-opacity="0.08"/>
<path d="M186.235 27.884H173.601C173.309 27.884 173.078 27.6525 173.078 27.3579V14.647C173.078 14.3524 173.309 14.1209 173.601 14.1209H186.245C186.538 14.1209 186.768 14.3524 186.768 14.647V27.3579C186.757 27.6525 186.527 27.884 186.235 27.884ZM174.124 26.8318H185.722V15.1731H174.124V26.8318Z" fill="#FF6600" fill-opacity="0.08"/>
<path d="M198.878 27.884H186.245C185.952 27.884 185.722 27.6525 185.722 27.3579V14.647C185.722 14.3524 185.952 14.1209 186.245 14.1209H198.878C199.171 14.1209 199.401 14.3524 199.401 14.647V27.3579C199.401 27.6525 199.16 27.884 198.878 27.884ZM186.757 26.8318H198.345V15.1731H186.757V26.8318Z" fill="#FF6600" fill-opacity="0.08"/>
<path d="M135.681 40.6054H123.037C122.745 40.6054 122.515 40.3739 122.515 40.0793V27.3579C122.515 27.0633 122.745 26.8318 123.037 26.8318H135.681C135.974 26.8318 136.204 27.0633 136.204 27.3579V40.0793C136.204 40.3739 135.963 40.6054 135.681 40.6054ZM123.56 39.5532H135.158V27.884H123.56V39.5532Z" fill="#FF6600" fill-opacity="0.08"/>
<path d="M148.314 40.6054H135.67C135.378 40.6054 135.148 40.3739 135.148 40.0793V27.3579C135.148 27.0633 135.378 26.8318 135.67 26.8318H148.314C148.607 26.8318 148.837 27.0633 148.837 27.3579V40.0793C148.837 40.3739 148.607 40.6054 148.314 40.6054ZM136.204 39.5532H147.802V27.884H136.204V39.5532Z" fill="#FF6600" fill-opacity="0.08"/>
<path d="M160.958 40.6054H148.314C148.021 40.6054 147.791 40.3739 147.791 40.0793V27.3579C147.791 27.0633 148.021 26.8318 148.314 26.8318H160.958C161.251 26.8318 161.481 27.0633 161.481 27.3579V40.0793C161.481 40.3739 161.251 40.6054 160.958 40.6054ZM148.837 39.5532H160.435V27.884H148.837V39.5532Z" fill="#FF6600" fill-opacity="0.08"/>
<path d="M173.601 40.6054H160.958C160.665 40.6054 160.435 40.3739 160.435 40.0793V27.3579C160.435 27.0633 160.665 26.8318 160.958 26.8318H173.601C173.894 26.8318 174.124 27.0633 174.124 27.3579V40.0793C174.124 40.3739 173.884 40.6054 173.601 40.6054ZM161.481 39.5532H173.078V27.884H161.481V39.5532Z" fill="#FF6600" fill-opacity="0.08"/>
<path d="M186.235 40.6054H173.601C173.309 40.6054 173.078 40.3739 173.078 40.0793V27.3579C173.078 27.0633 173.309 26.8318 173.601 26.8318H186.245C186.538 26.8318 186.768 27.0633 186.768 27.3579V40.0793C186.757 40.3739 186.527 40.6054 186.235 40.6054ZM174.124 39.5532H185.722V27.884H174.124V39.5532Z" fill="#FF6600" fill-opacity="0.08"/>
<path d="M198.878 40.6054H186.245C185.952 40.6054 185.722 40.3739 185.722 40.0793V27.3579C185.722 27.0633 185.952 26.8318 186.245 26.8318H198.878C199.171 26.8318 199.401 27.0633 199.401 27.3579V40.0793C199.401 40.3739 199.16 40.6054 198.878 40.6054ZM186.757 39.5532H198.345V27.884H186.757V39.5532Z" fill="#FF6600" fill-opacity="0.08"/>
<path d="M135.681 53.3163H123.037C122.745 53.3163 122.515 53.0848 122.515 52.7902V40.0793C122.515 39.7847 122.745 39.5532 123.037 39.5532H135.681C135.974 39.5532 136.204 39.7847 136.204 40.0793V52.8007C136.204 53.0848 135.963 53.3163 135.681 53.3163ZM123.56 52.2641H135.158V40.6054H123.56V52.2641Z" fill="#FF6600" fill-opacity="0.08"/>
<path d="M148.314 53.3163H135.67C135.378 53.3163 135.148 53.0848 135.148 52.7902V40.0793C135.148 39.7847 135.378 39.5532 135.67 39.5532H148.314C148.607 39.5532 148.837 39.7847 148.837 40.0793V52.8007C148.837 53.0848 148.607 53.3163 148.314 53.3163ZM136.204 52.2641H147.802V40.6054H136.204V52.2641Z" fill="#FF6600" fill-opacity="0.08"/>
<path d="M160.958 53.3163H148.314C148.021 53.3163 147.791 53.0848 147.791 52.7902V40.0793C147.791 39.7847 148.021 39.5532 148.314 39.5532H160.958C161.251 39.5532 161.481 39.7847 161.481 40.0793V52.8007C161.481 53.0848 161.251 53.3163 160.958 53.3163ZM148.837 52.2641H160.435V40.6054H148.837V52.2641Z" fill="#FF6600" fill-opacity="0.08"/>
<path d="M173.601 53.3163H160.958C160.665 53.3163 160.435 53.0848 160.435 52.7902V40.0793C160.435 39.7847 160.665 39.5532 160.958 39.5532H173.601C173.894 39.5532 174.124 39.7847 174.124 40.0793V52.8007C174.124 53.0848 173.884 53.3163 173.601 53.3163ZM161.481 52.2641H173.078V40.6054H161.481V52.2641Z" fill="#FF6600" fill-opacity="0.08"/>
<path d="M186.235 53.3163H173.601C173.309 53.3163 173.078 53.0848 173.078 52.7902V40.0793C173.078 39.7847 173.309 39.5532 173.601 39.5532H186.245C186.538 39.5532 186.768 39.7847 186.768 40.0793V52.8007C186.757 53.0848 186.527 53.3163 186.235 53.3163ZM174.124 52.2641H185.722V40.6054H174.124V52.2641Z" fill="#FF6600" fill-opacity="0.08"/>
<path d="M198.878 53.3163H186.245C185.952 53.3163 185.722 53.0848 185.722 52.7902V40.0793C185.722 39.7847 185.952 39.5532 186.245 39.5532H198.878C199.171 39.5532 199.401 39.7847 199.401 40.0793V52.8007C199.401 53.0848 199.16 53.3163 198.878 53.3163ZM186.757 52.2641H198.345V40.6054H186.757V52.2641Z" fill="#FF6600" fill-opacity="0.08"/>
<path d="M135.681 66.0377H123.037C122.745 66.0377 122.515 65.8062 122.515 65.5116V52.7902C122.515 52.4956 122.745 52.2641 123.037 52.2641H135.681C135.974 52.2641 136.204 52.4956 136.204 52.7902V65.5116C136.204 65.8062 135.963 66.0377 135.681 66.0377ZM123.56 64.9855H135.158V53.3163H123.56V64.9855Z" fill="#FF6600" fill-opacity="0.08"/>
<path d="M148.314 66.0377H135.67C135.378 66.0377 135.148 65.8062 135.148 65.5116V52.7902C135.148 52.4956 135.378 52.2641 135.67 52.2641H148.314C148.607 52.2641 148.837 52.4956 148.837 52.7902V65.5116C148.837 65.8062 148.607 66.0377 148.314 66.0377ZM136.204 64.9855H147.802V53.3163H136.204V64.9855Z" fill="#FF6600" fill-opacity="0.08"/>
<path d="M160.958 66.0377H148.314C148.021 66.0377 147.791 65.8062 147.791 65.5116V52.7902C147.791 52.4956 148.021 52.2641 148.314 52.2641H160.958C161.251 52.2641 161.481 52.4956 161.481 52.7902V65.5116C161.481 65.8062 161.251 66.0377 160.958 66.0377ZM148.837 64.9855H160.435V53.3163H148.837V64.9855Z" fill="#FF6600" fill-opacity="0.08"/>
<path d="M173.601 66.0377H160.958C160.665 66.0377 160.435 65.8062 160.435 65.5116V52.7902C160.435 52.4956 160.665 52.2641 160.958 52.2641H173.601C173.894 52.2641 174.124 52.4956 174.124 52.7902V65.5116C174.124 65.8062 173.884 66.0377 173.601 66.0377ZM161.481 64.9855H173.078V53.3163H161.481V64.9855Z" fill="#FF6600" fill-opacity="0.08"/>
<path d="M186.235 66.0377H173.601C173.309 66.0377 173.078 65.8062 173.078 65.5116V52.7902C173.078 52.4956 173.309 52.2641 173.601 52.2641H186.245C186.538 52.2641 186.768 52.4956 186.768 52.7902V65.5116C186.757 65.8062 186.527 66.0377 186.235 66.0377ZM174.124 64.9855H185.722V53.3163H174.124V64.9855Z" fill="#FF6600" fill-opacity="0.08"/>
<path d="M198.878 66.0377H186.245C185.952 66.0377 185.722 65.8062 185.722 65.5116V52.7902C185.722 52.4956 185.952 52.2641 186.245 52.2641H198.878C199.171 52.2641 199.401 52.4956 199.401 52.7902V65.5116C199.401 65.8062 199.16 66.0377 198.878 66.0377ZM186.757 64.9855H198.345V53.3163H186.757V64.9855Z" fill="#FF6600" fill-opacity="0.08"/>
<path d="M135.681 78.7381H123.037C122.745 78.7381 122.515 78.5066 122.515 78.212V65.5011C122.515 65.2065 122.745 64.975 123.037 64.975H135.681C135.974 64.975 136.204 65.2065 136.204 65.5011V78.2225C136.204 78.5066 135.963 78.7381 135.681 78.7381ZM123.56 77.6859H135.158V66.0272H123.56V77.6859Z" fill="#FF6600" fill-opacity="0.08"/>
<path d="M148.314 78.7381H135.67C135.378 78.7381 135.148 78.5066 135.148 78.212V65.5011C135.148 65.2065 135.378 64.975 135.67 64.975H148.314C148.607 64.975 148.837 65.2065 148.837 65.5011V78.2225C148.837 78.5066 148.607 78.7381 148.314 78.7381ZM136.204 77.6859H147.802V66.0272H136.204V77.6859Z" fill="#FF6600" fill-opacity="0.08"/>
<path d="M160.958 78.7381H148.314C148.021 78.7381 147.791 78.5066 147.791 78.212V65.5011C147.791 65.2065 148.021 64.975 148.314 64.975H160.958C161.251 64.975 161.481 65.2065 161.481 65.5011V78.2225C161.481 78.5066 161.251 78.7381 160.958 78.7381ZM148.837 77.6859H160.435V66.0272H148.837V77.6859Z" fill="#FF6600" fill-opacity="0.08"/>
<path d="M154.369 23.9276H118.331C117.212 23.9276 116.313 23.0227 116.313 21.8968C116.313 20.7709 117.212 19.866 118.331 19.866H154.369C155.488 19.866 156.388 20.7709 156.388 21.8968C156.388 23.0227 155.478 23.9276 154.369 23.9276Z" fill="#FF6600" fill-opacity="0.08"/>
<path d="M190.951 49.0864H169.303C168.184 49.0864 167.285 48.1814 167.285 47.0556C167.285 45.9297 168.184 45.0248 169.303 45.0248H190.951C192.07 45.0248 192.969 45.9297 192.969 47.0556C192.969 48.1814 192.06 49.0864 190.951 49.0864Z" fill="#FF6600" fill-opacity="0.08"/>
<path d="M140.188 61.2396H118.54C117.421 61.2396 116.522 60.3347 116.522 59.2088C116.522 58.0829 117.421 57.178 118.54 57.178H140.188C141.307 57.178 142.207 58.0829 142.207 59.2088C142.207 60.3347 141.297 61.2396 140.188 61.2396Z" fill="#FF6600" fill-opacity="0.08"/>
<path d="M129.354 74.1399C130.318 74.1399 131.1 73.3531 131.1 72.3826C131.1 71.4122 130.318 70.6254 129.354 70.6254C128.389 70.6254 127.607 71.4122 127.607 72.3826C127.607 73.3531 128.389 74.1399 129.354 74.1399Z" fill="#FF6600" fill-opacity="0.08"/>
<path d="M197.414 163.337C197.383 163.337 197.362 163.337 197.33 163.327C197.048 163.284 196.849 163.011 196.902 162.727L206.356 103.981C206.397 103.697 206.669 103.497 206.952 103.55C207.234 103.592 207.433 103.865 207.38 104.149L197.926 162.895C197.885 163.158 197.665 163.337 197.414 163.337Z" fill="#FF6652"/>
<path d="M234.477 160.37C234.477 161.717 233.389 162.811 232.051 162.811C230.712 162.811 229.624 161.717 229.624 160.37C229.624 159.023 230.712 157.929 232.051 157.929C233.389 157.929 234.477 159.023 234.477 160.37Z" fill="#FF6652"/>
<path d="M251.126 158.455H231.224C230.932 158.455 230.702 158.223 230.702 157.929C230.702 157.634 230.932 157.403 231.224 157.403H251.126C251.419 157.403 251.649 157.634 251.649 157.929C251.649 158.223 251.408 158.455 251.126 158.455Z" fill="#FF6652"/>
<path d="M233.337 160.138L232.856 157.339H228.087V158.539V160.138L229.938 161.212H231.58L233.337 160.138Z" fill="#FFCEC8"/>
<path d="M233.337 160.138L233.776 162.348L219.982 162.327V162.148C219.982 161.675 220.285 161.243 220.735 161.085L228.077 158.539L229.196 159.865C229.206 159.854 230.942 161.127 233.337 160.138Z" fill="#426BFF"/>
<path d="M219.993 162.327V163.148L233.964 163.127L233.787 162.348L219.993 162.327Z" fill="#426BFF"/>
<path d="M192.666 160.37L194.402 158.244L190.731 154.772L189.968 155.593L188.88 156.761L189.497 158.823L190.69 159.949L192.666 160.37Z" fill="#FFCEC8"/>
<path d="M192.666 160.37L191.307 162.001L181.487 152.783L181.612 152.646C181.936 152.299 182.449 152.194 182.877 152.394L189.968 155.593L189.884 157.329C189.884 157.329 190.25 159.444 192.666 160.37Z" fill="#426BFF"/>
<path d="M181.476 152.794L180.922 153.383L190.742 162.622L191.296 162.011L181.476 152.794Z" fill="#426BFF"/>
<path d="M224.866 58.8194L225.211 64.7119C225.295 66.1219 226.529 67.1846 227.92 67.0373C228.014 67.0268 228.118 67.0163 228.223 66.9952L228.599 70.5939C228.599 70.5939 229.091 73.0982 232.824 72.6141C236.568 72.1196 235.972 69.7205 235.972 69.7205L235.157 62.9547C235.157 62.9547 236.976 63.0599 237.164 61.1028C237.164 61.1028 237.175 59.4087 234.947 60.2294L234.54 56.9149C234.54 56.9254 226.748 54.0108 224.866 58.8194Z" fill="#FFCEC8"/>
<path d="M234.54 56.9254C234.54 56.9254 229.258 60.7134 224.866 58.8194C224.866 58.8194 223.078 57.8198 223.611 54.7158C223.611 54.7158 224.49 51.4854 229.028 51.9379C229.028 51.9379 231.737 52.2641 232.511 53.2006C232.511 53.2006 232.793 51.8537 235.073 52.2956C235.073 52.2956 236.213 52.4219 236.579 55.1156C236.945 57.8198 236.945 60.4188 236.945 60.4188C236.945 60.4188 236.087 59.7559 234.958 60.2294L234.54 56.9254Z" fill="#384B61"/>
<path d="M260.632 113.988L271.163 78.2856H238.252L245.228 113.988H260.632Z" fill="#FDA74C"/>
<path d="M245.416 112.273L194.559 158.665L189.278 153.667L216.981 118.007L228.735 112.136L245.416 112.273Z" fill="#293545"/>
<path d="M251.335 103.518L251.806 108.779C252.057 111.578 249.871 113.988 247.079 113.988H228.244L234.215 157.329H225.243L213.728 115.619C212.819 112.315 213.268 108.779 214.973 105.812L216.291 103.508H251.335V103.518Z" fill="#384B61"/>
<path d="M259.795 116.639H228.662L228.244 113.988H260.632L259.795 116.639Z" fill="#FDA74C"/>
<path d="M264.355 163.337C264.104 163.337 263.885 163.158 263.843 162.895L254.295 103.602C254.253 103.318 254.441 103.045 254.723 103.002C255.006 102.96 255.278 103.15 255.319 103.434L264.868 162.727C264.909 163.011 264.721 163.284 264.439 163.327C264.407 163.337 264.387 163.337 264.355 163.337Z" fill="#FF6652"/>
<path d="M228.464 69.6363L222.544 70.2782C220.327 70.5202 218.267 71.5409 216.74 73.1613C215.276 74.7081 214.377 76.7073 214.199 78.8328L213.592 85.6933L212.453 101.887H251.063L250.415 95.7947L254.713 94.7319C256.648 94.1637 258.007 93.5429 258.436 91.5542C258.666 90.502 258.582 89.4077 258.206 88.4081L253.092 74.7607C252.36 72.793 250.959 71.141 249.149 70.0888C247.664 69.226 245.96 68.8051 244.245 68.8787L235.857 69.2365C235.857 69.2365 235.92 71.5724 232.166 71.6987C232.176 71.6987 229.196 71.8144 228.464 69.6363Z" fill="#FF6652"/>
<path d="M270.985 104.37H191.045C189.884 104.37 188.943 103.423 188.943 102.255V102.108C188.943 100.94 189.884 99.9931 191.045 99.9931H270.985C272.146 99.9931 273.087 100.94 273.087 102.108V102.255C273.087 103.423 272.146 104.37 270.985 104.37Z" fill="#426BFF"/>
<path d="M222.011 85.6933C221.833 85.6933 221.697 85.5565 221.697 85.3776V77.9174C221.697 77.7385 221.833 77.6017 222.011 77.6017C222.189 77.6017 222.325 77.7385 222.325 77.9174V85.3776C222.325 85.5565 222.189 85.6933 222.011 85.6933Z" fill="#FF361C"/>
<path d="M228.223 67.0058C228.223 67.0058 231.475 66.7637 233.065 64.8908C233.065 64.8908 231.883 67.5214 228.328 68.0369L228.223 67.0058Z" fill="#FF9B8F"/>
<path d="M233.996 95.8263L232.396 97.2573L227.836 97.7729L228.526 98.9408H235.345L234.853 98.5831L233.996 95.8263Z" fill="#FFCEC8"/>
<path d="M234.853 98.8988C234.717 98.8988 234.592 98.8146 234.55 98.6778L233.473 95.2265C233.421 95.0792 233.494 94.9108 233.64 94.8477L247.413 88.5343L243.23 76.9178C243.167 76.7494 243.251 76.5705 243.418 76.5179C243.586 76.4548 243.763 76.539 243.816 76.7073L248.093 88.5975C248.145 88.7553 248.072 88.9237 247.926 88.9973L234.142 95.3107L235.052 98.2253L250.342 95.4895C250.509 95.458 250.676 95.5737 250.708 95.7421C250.739 95.9104 250.624 96.0788 250.457 96.1104L234.895 98.8988C234.895 98.8988 234.874 98.8988 234.853 98.8988Z" fill="#FF361C"/>
<path d="M241.17 158.097C240.877 158.097 240.647 157.866 240.647 157.571V116.639C240.647 116.345 240.877 116.113 241.17 116.113C241.463 116.113 241.693 116.345 241.693 116.639V157.571C241.693 157.866 241.463 158.097 241.17 158.097Z" fill="#FF6652"/>
<path d="M253.479 160.37C253.479 161.717 252.391 162.811 251.053 162.811C249.714 162.811 248.626 161.717 248.626 160.37C248.626 159.023 249.714 157.929 251.053 157.929C252.391 157.929 253.479 159.023 253.479 160.37Z" fill="#FF6652"/>
<path d="M237.091 100.277H227.836V98.4989H235.324C236.297 98.4989 237.091 99.2986 237.091 100.277Z" fill="#293545"/>
<path d="M228.955 100.277H202.245L198 86.8087C197.623 85.6091 198.512 84.3885 199.767 84.3885H222.597C223.402 84.3885 224.113 84.9147 224.364 85.6828L228.955 100.277Z" fill="#293545"/>
<path d="M212.212 93.5008C211.616 93.9112 210.716 93.6482 210.225 92.9116C209.723 92.175 209.807 91.2491 210.413 90.8387C211.009 90.4283 211.909 90.6914 212.4 91.428C212.892 92.1645 212.808 93.0905 212.212 93.5008Z" fill="#44576E"/>
<path d="M146.735 20.6131L146.923 26.4214L150.96 31.1564L151.012 32.8295L155.028 35.1233L158.772 31.8614L158.092 25.7164C158.092 25.7164 159.065 25.4113 159.159 24.2854C159.19 23.875 159.044 23.4541 158.72 23.2121C158.354 22.9596 157.758 22.8754 156.879 23.8119L156.68 18.7928L146.923 19.1189L146.735 20.6131Z" fill="#FFCEC8"/>
<path d="M156.9 23.8014C156.9 23.8014 158.249 30.6829 148.826 31.4721C148.576 31.4931 148.314 31.4931 148.063 31.4826C147.457 31.451 146.975 30.946 146.975 30.3252L146.944 26.4004C146.944 26.4004 148.105 25.3797 149.161 26.232C150.217 27.0843 151.744 27.5157 153.606 26.0531C153.606 26.0531 155.3 25.0219 155.195 23.0438C155.154 22.1914 155.08 21.3918 154.861 20.7815C154.505 19.7924 153.25 19.4872 152.424 20.1396C151.483 20.8867 149.423 22.0126 146.756 20.5815C146.756 20.5815 145.072 19.6345 145.804 18.0246C146.536 16.4147 148.241 15.9623 150.228 16.4463C152.215 16.9303 153.438 18.2561 155.99 17.709C155.99 17.709 157.569 17.1723 157.988 16.4568L158.207 23.0122C158.186 23.0438 157.538 23.0648 156.9 23.8014Z" fill="#384B61"/>
<path d="M165.015 145.418L165.967 159.528H171.384V144.881L165.015 145.418Z" fill="#FFCEC8"/>
<path d="M165.967 159.528V162.822H178.13C178.13 162.822 178.663 161.506 177.418 161.054C176.164 160.601 172.357 159.928 171.395 158.592C171.395 158.592 170.83 159.633 169.606 159.318C168.383 159.002 167.368 157.813 165.967 159.528Z" fill="#2E3E52"/>
<path d="M150.458 145.407L149.6 159.528H144.173L143.817 144.881L150.458 145.407Z" fill="#FFCEC8"/>
<path d="M149.6 159.528V162.822H137.438C137.438 162.822 136.904 161.506 138.149 161.054C139.404 160.601 143.211 159.928 144.173 158.592C144.173 158.592 144.737 159.633 145.961 159.318C147.185 159.002 148.199 157.813 149.6 159.528Z" fill="#2E3E52"/>
<path d="M152.55 155.898L141.736 155.109V151.899L152.55 152.436V155.898Z" fill="#2E3E52"/>
<path d="M163.645 155.898L173.413 155.109V151.899L163.645 152.436V155.898Z" fill="#2E3E52"/>
<path d="M153.417 118.796L156.356 87.8503L158.814 88.0713L161.596 118.796H172.629L171.782 72.3616H144.309L143.106 118.796H153.417Z" fill="#2E3E52"/>
<path d="M161.596 118.796L165.015 153.267L172.629 152.636V118.533L161.596 118.796Z" fill="#2E3E52"/>
<path d="M143.106 118.07L143.462 152.205L151.284 152.678L153.417 118.07H143.106Z" fill="#2E3E52"/>
<path d="M129.73 80.7268L129.26 81.8527L127.754 84.2202L126.415 84.5884C126.248 84.6305 126.101 84.7358 125.997 84.8726L124.794 86.4193C124.648 86.5456 124.669 86.7666 124.784 86.8718C124.888 86.956 125.066 86.956 125.181 86.8402C125.328 86.7139 125.474 86.5877 125.62 86.4614L124.773 88.0818C124.731 88.1555 124.752 88.2607 124.815 88.3239C124.878 88.387 124.962 88.408 125.045 88.3765C124.93 88.608 124.826 88.8394 124.711 89.0604C124.669 89.1867 124.721 89.3235 124.836 89.3971C124.941 89.4603 125.077 89.4603 125.171 89.3971C125.715 88.7763 126.248 88.1555 126.792 87.5347L127.837 87.1348L126.792 88.1239L125.495 89.7654C125.453 89.8391 125.453 89.9232 125.505 89.9969C125.568 90.0811 125.683 90.1232 125.788 90.0811C127.095 89.1867 128.413 88.2818 129.72 87.3874L131.017 86.4088L131.205 86.6087L130.954 87.6294C130.87 87.9661 130.87 88.3133 130.964 88.6606C131.069 89.0709 131.466 89.3445 131.885 89.3024L131.937 87.8714C131.937 87.8714 132.376 86.2615 132.397 86.1984C132.418 86.1457 133.056 83.652 133.056 83.652L133.757 82.021L129.73 80.7268Z" fill="#FFCEC8"/>
<path d="M141.893 44.6565C141.945 53.9687 142.165 68.0475 143.033 74.7396C143.033 74.7396 171.708 76.339 173.507 72.8982C173.507 72.8982 171.823 64.8277 171.342 53.7056C171.039 46.6873 169.115 40.9947 167.745 37.7539C166.961 35.9125 165.402 34.5972 163.551 34.1868L159.274 33.2293C159.075 34.1658 158.333 34.8813 157.433 34.9339C154.871 35.0707 150.636 33.3871 150.636 33.3871L150.061 33.5345C145.25 34.7656 141.862 39.3743 141.893 44.6565Z" fill="#426BFF"/>
<path d="M135.137 61.3974L143.106 67.8476C140.397 73.1192 134.353 85.0199 134.353 85.0199L128.151 81.6843L135.137 61.3974Z" fill="#FF6652"/>
<path d="M154.829 93.9849L150.625 33.3871L148.366 33.9659C145.564 34.6814 143.273 36.8279 142.238 39.711L134.938 61.8499L140.105 67.1426L140.628 96.2577L151.891 97.1521C153.574 97.2994 154.976 95.7842 154.829 93.9849Z" fill="#FF6652"/>
<path d="M159.274 33.2293L167.055 94.1427C167.504 95.9946 169.47 96.8995 171.039 95.9736L179.981 90.723L172.137 57.1043L166.396 34.1658C165.475 33.6186 159.274 33.2293 159.274 33.2293Z" fill="#FF6652"/>
<path d="M141.6 68.4684H141.59C141.36 68.4578 141.182 68.2684 141.182 68.037L141.799 46.7294C141.809 46.4979 141.997 46.319 142.228 46.319C142.458 46.3295 142.635 46.5189 142.635 46.7504L142.018 68.058C142.008 68.279 141.83 68.4684 141.6 68.4684Z" fill="#E34934"/>
<path d="M144.058 61.2711L151.87 60.0611C152.382 59.9874 152.727 59.5034 152.654 58.9878L150.667 45.9507C150.594 45.4351 150.113 45.0879 149.6 45.1615L141.788 46.3716C141.276 46.4453 140.931 46.9293 141.004 47.4449L142.991 60.482C143.075 60.9976 143.556 61.3448 144.058 61.2711Z" fill="#2E3E52"/>
<path d="M154.85 54.5158C154.85 54.5158 154.662 53.432 153.679 53.0427L151.514 51.6117L151.713 52.8954C151.713 52.8954 149.004 51.6433 147.415 52.4009C145.836 53.1479 147.425 56.0521 149.297 56.4519L152.027 57.5042L157.036 58.1355L154.85 54.5158Z" fill="#FFCEC8"/>
<path d="M154.589 52.6113L170.715 55.4523C167.431 47.4554 166.04 39.5847 165.402 36.2281C165.277 35.5652 166.385 34.8182 166.396 34.1553L167.546 34.3236C169.721 34.6498 171.604 36.0282 172.576 38.0169L181.633 56.5466C182.26 58.8615 181.455 61.2396 179.583 62.6285C178.077 63.7439 176.122 64.1437 174.208 63.7333C167.232 62.2392 153.282 59.2614 153.282 59.2614L154.589 52.6113Z" fill="#FF6652"/>
<path d="M171.865 56.4625C171.834 56.4625 171.813 56.4625 171.782 56.4519L162.286 54.5895C162.056 54.5474 161.909 54.3264 161.951 54.095C161.993 53.8635 162.213 53.7162 162.443 53.7582L171.186 55.4734L165.078 39.5637C164.994 39.3427 165.099 39.1007 165.319 39.0166C165.538 38.9324 165.779 39.0376 165.862 39.2586L172.252 55.8837C172.305 56.031 172.284 56.1889 172.179 56.3046C172.106 56.4098 171.991 56.4625 171.865 56.4625Z" fill="#E34934"/>
<path d="M172.639 63.8386C172.608 63.8386 172.587 63.8386 172.556 63.828L163.666 61.9235C163.436 61.8709 163.3 61.6499 163.342 61.429C163.394 61.1975 163.614 61.0502 163.834 61.1028L172.723 63.0073C172.953 63.0599 173.089 63.2809 173.047 63.5018C173.005 63.7018 172.827 63.8386 172.639 63.8386Z" fill="#E34934"/>
<path d="M150.636 33.3871L150.395 32.0298L158.814 30.2936L159.274 33.2293L159.64 38.6167L154.84 39.1744L151.671 38.2484L150.887 37.0594L150.636 33.3871Z" fill="#426BFF"/>
<path d="M18.3327 121.206C18.2177 121.111 18.1131 121.027 18.0085 120.943C18.0085 121.006 18.019 121.069 18.0608 121.122C18.134 121.206 18.2386 121.216 18.3327 121.206Z" fill="#87A1FF"/>
<path d="M20.1629 123.616C20.2675 123.742 20.4557 123.752 20.5812 123.647C20.5917 123.637 20.5917 123.616 20.6021 123.605C20.4871 123.458 20.372 123.31 20.257 123.174C20.2361 123.184 20.2152 123.174 20.2047 123.195C20.0688 123.3 20.0583 123.489 20.1629 123.616Z" fill="#87A1FF"/>
<path d="M18.5314 122.469C18.4059 122.574 18.3954 122.763 18.5 122.89C18.6046 123.016 18.7928 123.026 18.9183 122.921C19.0438 122.816 19.0543 122.626 18.9497 122.5C18.8451 122.384 18.6569 122.363 18.5314 122.469Z" fill="#87A1FF"/>
<path d="M22.2754 126.12C22.2649 126.099 22.2544 126.078 22.2439 126.057C22.2544 126.078 22.2439 126.088 22.2649 126.109C22.2649 126.12 22.2754 126.109 22.2754 126.12Z" fill="#87A1FF"/>
<path d="M20.6229 124.973C20.4974 125.078 20.487 125.268 20.5916 125.394C20.6961 125.52 20.8844 125.531 21.0099 125.425C21.1354 125.32 21.1458 125.131 21.0413 125.005C20.9367 124.878 20.7484 124.857 20.6229 124.973Z" fill="#87A1FF"/>
<path d="M22.725 127.467C22.5995 127.572 22.589 127.761 22.6936 127.888C22.7982 128.014 22.9864 128.024 23.1119 127.919C23.1433 127.888 23.1538 127.846 23.1747 127.803C23.1119 127.667 23.0492 127.54 22.9864 127.404C22.8819 127.393 22.7982 127.404 22.725 127.467Z" fill="#87A1FF"/>
<path d="M16.8268 122.174C16.9314 122.3 17.1196 122.311 17.2451 122.206C17.3706 122.1 17.381 121.911 17.2765 121.785C17.1719 121.658 16.9837 121.648 16.8582 121.753C16.8582 121.753 16.8582 121.764 16.8477 121.774C16.8477 121.9 16.8372 122.037 16.8268 122.174Z" fill="#87A1FF"/>
<path d="M18.9183 124.668C19.0229 124.794 19.2111 124.805 19.3366 124.699C19.4621 124.594 19.4726 124.405 19.368 124.278C19.2634 124.152 19.0752 124.142 18.9497 124.247C18.8346 124.352 18.8137 124.542 18.9183 124.668Z" fill="#87A1FF"/>
<path d="M17.7157 125.299C17.5902 125.404 17.5798 125.594 17.6843 125.72C17.7889 125.846 17.9772 125.857 18.1027 125.752C18.2282 125.646 18.2386 125.457 18.134 125.331C18.0295 125.215 17.8412 125.194 17.7157 125.299Z" fill="#87A1FF"/>
<path d="M17.2869 123.531C17.1614 123.637 17.1509 123.826 17.2555 123.952C17.3601 124.079 17.5483 124.089 17.6738 123.984C17.7993 123.879 17.8098 123.689 17.7052 123.563C17.6006 123.437 17.4124 123.426 17.2869 123.531Z" fill="#87A1FF"/>
<path d="M21.0518 126.741C20.9263 126.846 20.9158 127.035 21.0204 127.162C21.125 127.288 21.3132 127.298 21.4387 127.193C21.5642 127.088 21.5747 126.899 21.4701 126.772C21.3655 126.656 21.1773 126.635 21.0518 126.741Z" fill="#87A1FF"/>
<path d="M19.8178 127.793C19.6923 127.898 19.6818 128.088 19.7864 128.214C19.891 128.34 20.0792 128.351 20.2047 128.245C20.3302 128.14 20.3407 127.951 20.2361 127.824C20.1315 127.709 19.9433 127.688 19.8178 127.793Z" fill="#87A1FF"/>
<path d="M19.3889 126.025C19.2634 126.13 19.253 126.32 19.3576 126.446C19.4621 126.572 19.6504 126.583 19.7759 126.478C19.9014 126.372 19.9118 126.183 19.8072 126.057C19.7027 125.93 19.5144 125.92 19.3889 126.025Z" fill="#87A1FF"/>
<path d="M18.1444 127.077C18.0189 127.183 18.0085 127.372 18.1131 127.498C18.2176 127.625 18.4059 127.635 18.5314 127.53C18.6569 127.425 18.6673 127.235 18.5627 127.109C18.4582 126.983 18.2699 126.972 18.1444 127.077Z" fill="#87A1FF"/>
<path d="M23.1538 129.234C23.0283 129.34 23.0179 129.529 23.1225 129.655C23.227 129.782 23.4153 129.792 23.5408 129.687C23.6663 129.582 23.6767 129.392 23.5721 129.266C23.4676 129.15 23.2793 129.129 23.1538 129.234Z" fill="#87A1FF"/>
<path d="M21.9093 130.287C21.7838 130.392 21.7734 130.581 21.8779 130.708C21.9825 130.834 22.1708 130.844 22.2963 130.739C22.4218 130.634 22.4322 130.445 22.3276 130.318C22.2231 130.203 22.0348 130.181 21.9093 130.287Z" fill="#87A1FF"/>
<path d="M21.4805 128.519C21.355 128.624 21.3445 128.814 21.4491 128.94C21.5537 129.066 21.7419 129.077 21.8674 128.971C21.9929 128.866 22.0034 128.677 21.8988 128.551C21.7942 128.424 21.606 128.414 21.4805 128.519Z" fill="#87A1FF"/>
<path d="M20.2465 129.571C20.121 129.676 20.1105 129.866 20.2151 129.992C20.3197 130.118 20.5079 130.129 20.6334 130.024C20.7589 129.918 20.7694 129.729 20.6648 129.603C20.5498 129.476 20.372 129.466 20.2465 129.571Z" fill="#87A1FF"/>
<path d="M24.0114 132.791C23.8859 132.896 23.8754 133.086 23.98 133.212C24.0846 133.338 24.2728 133.349 24.3983 133.243C24.5238 133.138 24.5343 132.949 24.4297 132.823C24.3146 132.696 24.1264 132.675 24.0114 132.791Z" fill="#87A1FF"/>
<path d="M23.5825 131.013C23.457 131.118 23.4466 131.307 23.5512 131.434C23.6557 131.56 23.844 131.57 23.9695 131.465C24.095 131.36 24.1054 131.171 24.0009 131.044C23.8963 130.918 23.708 130.908 23.5825 131.013Z" fill="#87A1FF"/>
<path d="M22.338 132.065C22.2125 132.17 22.2021 132.36 22.3067 132.486C22.4112 132.612 22.5995 132.623 22.725 132.517C22.8505 132.412 22.8609 132.223 22.7563 132.097C22.6518 131.981 22.4635 131.96 22.338 132.065Z" fill="#87A1FF"/>
<path d="M24.4297 134.559C24.3042 134.664 24.2938 134.853 24.3983 134.98C24.5029 135.106 24.6912 135.116 24.8166 135.011C24.9421 134.906 24.9526 134.717 24.848 134.59C24.7434 134.475 24.5552 134.453 24.4297 134.559Z" fill="#87A1FF"/>
<path d="M16.7222 126.299C16.7222 126.488 16.7222 126.667 16.7222 126.856C16.764 126.846 16.8163 126.846 16.8581 126.814C16.9836 126.709 16.9941 126.52 16.8895 126.393C16.8477 126.341 16.7849 126.309 16.7222 126.299Z" fill="#87A1FF"/>
<path d="M18.5733 128.856C18.4478 128.961 18.4373 129.15 18.5419 129.277C18.6465 129.403 18.8347 129.413 18.9602 129.308C19.0857 129.203 19.0962 129.013 18.9916 128.887C18.887 128.761 18.6988 128.75 18.5733 128.856Z" fill="#87A1FF"/>
<path d="M17.3391 129.908C17.2136 130.013 17.2032 130.202 17.3078 130.329C17.4123 130.455 17.6006 130.466 17.7261 130.36C17.8516 130.255 17.862 130.066 17.7574 129.939C17.6424 129.813 17.4646 129.803 17.3391 129.908Z" fill="#87A1FF"/>
<path d="M16.9104 128.13C16.7849 128.235 16.7745 128.424 16.879 128.55C16.9836 128.677 17.1719 128.687 17.2974 128.582C17.4229 128.477 17.4333 128.287 17.3287 128.161C17.2242 128.045 17.0359 128.024 16.9104 128.13Z" fill="#87A1FF"/>
<path d="M20.6753 131.349C20.5498 131.455 20.5394 131.644 20.6439 131.77C20.7485 131.897 20.9368 131.907 21.0623 131.802C21.1877 131.697 21.1982 131.507 21.0936 131.381C20.9786 131.255 20.8008 131.244 20.6753 131.349Z" fill="#87A1FF"/>
<path d="M19.8491 132.433C19.7445 132.307 19.5563 132.296 19.4308 132.402C19.3053 132.507 19.2948 132.696 19.3994 132.823C19.504 132.949 19.6923 132.959 19.8177 132.854C19.9432 132.749 19.9537 132.559 19.8491 132.433Z" fill="#87A1FF"/>
<path d="M19.002 130.623C18.8765 130.729 18.866 130.918 18.9706 131.044C19.0752 131.171 19.2634 131.181 19.3889 131.076C19.5144 130.971 19.5249 130.781 19.4203 130.655C19.3157 130.539 19.1275 130.518 19.002 130.623Z" fill="#87A1FF"/>
<path d="M17.768 131.676C17.6425 131.781 17.632 131.97 17.7366 132.096C17.8412 132.223 18.0294 132.233 18.1549 132.128C18.2804 132.023 18.2909 131.833 18.1863 131.707C18.0712 131.591 17.883 131.57 17.768 131.676Z" fill="#87A1FF"/>
<path d="M22.7669 133.843C22.6414 133.948 22.6309 134.138 22.7355 134.264C22.8401 134.39 23.0283 134.401 23.1538 134.296C23.2793 134.19 23.2898 134.001 23.1852 133.875C23.0806 133.749 22.8924 133.738 22.7669 133.843Z" fill="#87A1FF"/>
<path d="M21.9093 135.348C22.0348 135.243 22.0453 135.053 21.9407 134.927C21.8361 134.801 21.6479 134.79 21.5224 134.895C21.3969 135.001 21.3864 135.19 21.491 135.316C21.5956 135.443 21.7838 135.453 21.9093 135.348Z" fill="#87A1FF"/>
<path d="M21.0622 133.538C21.1668 133.664 21.355 133.675 21.4805 133.57C21.606 133.464 21.6165 133.275 21.5119 133.149C21.4073 133.022 21.2191 133.012 21.0936 133.117C20.9786 133.222 20.9576 133.412 21.0622 133.538Z" fill="#87A1FF"/>
<path d="M20.2465 134.632C20.372 134.527 20.3824 134.338 20.2778 134.211C20.1733 134.085 19.985 134.075 19.8595 134.18C19.734 134.285 19.7236 134.475 19.8281 134.601C19.9327 134.727 20.121 134.738 20.2465 134.632Z" fill="#87A1FF"/>
<path d="M24.827 136.758C24.9316 136.884 25.1199 136.895 25.2454 136.789C25.3709 136.684 25.3813 136.495 25.2767 136.369C25.1722 136.242 24.9839 136.232 24.8584 136.337C24.7329 136.442 24.7225 136.632 24.827 136.758Z" fill="#87A1FF"/>
<path d="M24.0009 137.842C24.1263 137.736 24.1368 137.547 24.0322 137.421C23.9276 137.295 23.7394 137.284 23.6139 137.389C23.4884 137.494 23.478 137.684 23.5825 137.81C23.6976 137.936 23.8858 137.957 24.0009 137.842Z" fill="#87A1FF"/>
<path d="M23.6139 135.653C23.5093 135.527 23.3211 135.516 23.1956 135.621C23.0701 135.727 23.0596 135.916 23.1642 136.042C23.2688 136.169 23.457 136.179 23.5825 136.074C23.708 135.969 23.7185 135.779 23.6139 135.653Z" fill="#87A1FF"/>
<path d="M22.338 137.126C22.4635 137.021 22.474 136.832 22.3694 136.705C22.2648 136.579 22.0766 136.568 21.9511 136.674C21.8256 136.779 21.8151 136.968 21.9197 137.095C22.0243 137.221 22.2125 137.231 22.338 137.126Z" fill="#87A1FF"/>
<path d="M26.1029 140.346C26.2284 140.241 26.2389 140.051 26.1343 139.925C26.0297 139.799 25.8415 139.788 25.716 139.894C25.5905 139.999 25.58 140.188 25.6846 140.314C25.7892 140.43 25.9774 140.451 26.1029 140.346Z" fill="#87A1FF"/>
<path d="M25.6742 138.568C25.7997 138.463 25.8101 138.273 25.7056 138.147C25.601 138.021 25.4127 138.01 25.2872 138.115C25.1618 138.22 25.1513 138.41 25.2559 138.536C25.3605 138.652 25.5487 138.673 25.6742 138.568Z" fill="#87A1FF"/>
<path d="M24.4297 139.62C24.5552 139.515 24.5656 139.325 24.4611 139.199C24.3565 139.073 24.1682 139.062 24.0427 139.167C23.9172 139.273 23.9068 139.462 24.0114 139.588C24.1264 139.715 24.3042 139.725 24.4297 139.62Z" fill="#87A1FF"/>
<path d="M26.1448 141.661C26.0193 141.766 26.0088 141.956 26.1134 142.082C26.218 142.208 26.4062 142.219 26.5317 142.114C26.5631 142.082 26.5736 142.04 26.584 141.998C26.5736 141.893 26.5631 141.788 26.5631 141.682C26.4585 141.567 26.2703 141.556 26.1448 141.661Z" fill="#87A1FF"/>
<path d="M18.1863 133.454C18.0608 133.559 18.0503 133.749 18.1549 133.875C18.2595 134.001 18.4477 134.012 18.5732 133.906C18.6987 133.801 18.7092 133.612 18.6046 133.485C18.5 133.37 18.3118 133.349 18.1863 133.454Z" fill="#87A1FF"/>
<path d="M20.6753 136.411C20.8008 136.305 20.8112 136.116 20.7067 135.99C20.6021 135.864 20.4138 135.853 20.2883 135.958C20.1629 136.063 20.1524 136.253 20.257 136.379C20.3616 136.495 20.5498 136.516 20.6753 136.411Z" fill="#87A1FF"/>
<path d="M19.4308 137.463C19.5563 137.358 19.5667 137.168 19.4622 137.042C19.3576 136.916 19.1693 136.905 19.0438 137.01C18.9183 137.116 18.9079 137.305 19.0125 137.431C19.117 137.547 19.3053 137.568 19.4308 137.463Z" fill="#87A1FF"/>
<path d="M18.615 135.232C18.4895 135.337 18.4791 135.527 18.5836 135.653C18.6882 135.779 18.8765 135.79 19.0019 135.685C19.1274 135.579 19.1379 135.39 19.0333 135.264C18.9287 135.137 18.7405 135.127 18.615 135.232Z" fill="#87A1FF"/>
<path d="M17.7052 136.274C17.7366 136.411 17.7575 136.558 17.7889 136.695C17.8725 136.59 17.8934 136.432 17.7993 136.326C17.7784 136.295 17.7366 136.284 17.7052 136.274Z" fill="#87A1FF"/>
<path d="M22.7668 138.904C22.8923 138.799 22.9028 138.61 22.7982 138.484C22.6936 138.357 22.5054 138.347 22.3799 138.452C22.2544 138.557 22.2439 138.747 22.3485 138.873C22.4531 138.989 22.6413 139.01 22.7668 138.904Z" fill="#87A1FF"/>
<path d="M21.5223 139.957C21.6478 139.851 21.6583 139.662 21.5537 139.536C21.4491 139.409 21.2609 139.399 21.1354 139.504C21.0099 139.609 20.9994 139.799 21.104 139.925C21.2191 140.041 21.3968 140.062 21.5223 139.957Z" fill="#87A1FF"/>
<path d="M21.0936 138.178C21.2191 138.073 21.2296 137.884 21.125 137.757C21.0204 137.631 20.8322 137.621 20.7067 137.726C20.5812 137.831 20.5707 138.021 20.6753 138.147C20.7903 138.273 20.9681 138.284 21.0936 138.178Z" fill="#87A1FF"/>
<path d="M19.8595 139.231C19.985 139.125 19.9954 138.936 19.8909 138.81C19.7863 138.683 19.598 138.673 19.4726 138.778C19.3471 138.883 19.3366 139.073 19.4412 139.199C19.5458 139.325 19.734 139.346 19.8595 139.231Z" fill="#87A1FF"/>
<path d="M24.8584 141.398C24.9839 141.293 24.9943 141.104 24.8898 140.977C24.7852 140.851 24.5969 140.841 24.4715 140.946C24.346 141.051 24.3355 141.24 24.4401 141.367C24.5447 141.482 24.7329 141.503 24.8584 141.398Z" fill="#87A1FF"/>
<path d="M23.6244 142.45C23.7499 142.345 23.7603 142.156 23.6558 142.03C23.5512 141.903 23.3629 141.893 23.2374 141.998C23.1119 142.103 23.1015 142.293 23.2061 142.419C23.3106 142.545 23.4989 142.556 23.6244 142.45Z" fill="#87A1FF"/>
<path d="M23.1957 140.672C23.3212 140.567 23.3316 140.378 23.227 140.251C23.1225 140.125 22.9342 140.114 22.8087 140.22C22.6832 140.325 22.6728 140.514 22.7774 140.641C22.8819 140.767 23.0702 140.777 23.1957 140.672Z" fill="#87A1FF"/>
<path d="M21.9929 141.304C21.8883 141.177 21.7001 141.167 21.5746 141.272C21.4491 141.377 21.4386 141.567 21.5432 141.693C21.6478 141.819 21.836 141.83 21.9615 141.724C22.0766 141.619 22.0975 141.43 21.9929 141.304Z" fill="#87A1FF"/>
<path d="M26.5422 143.85C26.584 143.903 26.6363 143.913 26.699 143.934C26.6886 143.755 26.6886 143.576 26.6781 143.397C26.6467 143.408 26.6049 143.408 26.584 143.429C26.448 143.545 26.4376 143.724 26.5422 143.85Z" fill="#87A1FF"/>
<path d="M25.7159 144.944C25.8414 144.839 25.8519 144.65 25.7473 144.523C25.6427 144.397 25.4545 144.387 25.329 144.492C25.2035 144.597 25.193 144.786 25.2976 144.913C25.4022 145.039 25.5904 145.049 25.7159 144.944Z" fill="#87A1FF"/>
<path d="M25.2872 143.166C25.4127 143.061 25.4232 142.871 25.3186 142.745C25.214 142.619 25.0258 142.608 24.9003 142.713C24.7748 142.819 24.7643 143.008 24.8689 143.134C24.9735 143.261 25.1617 143.271 25.2872 143.166Z" fill="#87A1FF"/>
<path d="M24.0532 144.229C24.1787 144.123 24.1892 143.934 24.0846 143.808C23.98 143.682 23.7918 143.671 23.6663 143.776C23.5408 143.881 23.5303 144.071 23.6349 144.197C23.7395 144.313 23.9277 144.334 24.0532 144.229Z" fill="#87A1FF"/>
<path d="M26.1448 146.722C26.2703 146.617 26.2807 146.428 26.1761 146.302C26.0716 146.175 25.8833 146.165 25.7578 146.27C25.6323 146.375 25.6219 146.565 25.7265 146.691C25.831 146.807 26.0193 146.828 26.1448 146.722Z" fill="#87A1FF"/>
<path d="M18.2282 138.094C18.1863 138.042 18.134 138.031 18.0713 138.01C18.1131 138.178 18.1445 138.347 18.1863 138.515C18.3118 138.41 18.3327 138.22 18.2282 138.094Z" fill="#87A1FF"/>
<path d="M20.2883 141.009C20.4138 140.904 20.4243 140.714 20.3197 140.588C20.2151 140.462 20.0269 140.451 19.9014 140.556C19.7759 140.662 19.7654 140.851 19.87 140.977C19.9746 141.104 20.1628 141.114 20.2883 141.009Z" fill="#87A1FF"/>
<path d="M19.0856 141.64C19.0752 141.619 19.0542 141.63 19.0333 141.609C19.0647 141.714 19.0961 141.809 19.1274 141.914C19.1484 141.819 19.1484 141.724 19.0856 141.64Z" fill="#87A1FF"/>
<path d="M18.6569 139.872C18.6151 139.83 18.5628 139.809 18.5105 139.799C18.5523 139.957 18.5942 140.104 18.636 140.262C18.7301 140.146 18.751 139.988 18.6569 139.872Z" fill="#87A1FF"/>
<path d="M22.4218 143.082C22.3172 142.955 22.1289 142.945 22.0034 143.05C21.8779 143.155 21.8675 143.345 21.9721 143.471C22.0766 143.597 22.2649 143.608 22.3904 143.503C22.5054 143.397 22.5263 143.208 22.4218 143.082Z" fill="#87A1FF"/>
<path d="M21.1459 144.555C21.2714 144.45 21.2818 144.26 21.1772 144.134C21.0727 144.008 20.8844 143.997 20.7589 144.102C20.6334 144.208 20.623 144.397 20.7276 144.523C20.8321 144.65 21.0204 144.66 21.1459 144.555Z" fill="#87A1FF"/>
<path d="M20.717 142.787C20.8425 142.682 20.853 142.493 20.7484 142.366C20.6438 142.24 20.4556 142.229 20.3301 142.335C20.2046 142.44 20.1941 142.629 20.2987 142.756C20.4033 142.871 20.5915 142.892 20.717 142.787Z" fill="#87A1FF"/>
<path d="M24.4819 145.996C24.6074 145.891 24.6179 145.702 24.5133 145.576C24.4087 145.449 24.2205 145.439 24.095 145.544C23.9695 145.649 23.959 145.839 24.0636 145.965C24.1682 146.091 24.3564 146.102 24.4819 145.996Z" fill="#87A1FF"/>
<path d="M22.8191 147.017C22.9237 147.143 23.1119 147.154 23.2374 147.049C23.3629 146.943 23.3734 146.754 23.2688 146.628C23.1642 146.502 22.976 146.491 22.8505 146.596C22.725 146.701 22.7145 146.891 22.8191 147.017Z" fill="#87A1FF"/>
<path d="M22.8087 145.281C22.9342 145.176 22.9447 144.986 22.8401 144.86C22.7355 144.734 22.5473 144.723 22.4218 144.828C22.2963 144.934 22.2858 145.123 22.3904 145.249C22.495 145.365 22.6832 145.386 22.8087 145.281Z" fill="#87A1FF"/>
<path d="M21.5746 146.333C21.7001 146.228 21.7105 146.039 21.606 145.912C21.5014 145.786 21.3131 145.775 21.1876 145.881C21.0621 145.986 21.0517 146.175 21.1563 146.302C21.2608 146.428 21.4491 146.438 21.5746 146.333Z" fill="#87A1FF"/>
<path d="M26.5735 148.49C26.699 148.385 26.7094 148.196 26.6049 148.069C26.5003 147.943 26.312 147.933 26.1865 148.038C26.061 148.143 26.0506 148.332 26.1552 148.459C26.2597 148.585 26.448 148.595 26.5735 148.49Z" fill="#87A1FF"/>
<path d="M25.3395 149.553C25.465 149.448 25.4754 149.258 25.3708 149.132C25.2663 149.006 25.078 148.995 24.9525 149.1C24.827 149.206 24.8166 149.395 24.9212 149.521C25.0257 149.637 25.214 149.658 25.3395 149.553Z" fill="#87A1FF"/>
<path d="M24.9108 147.775C25.0363 147.669 25.0467 147.48 24.9421 147.354C24.8376 147.228 24.6493 147.217 24.5238 147.322C24.3983 147.427 24.3879 147.617 24.4924 147.743C24.597 147.859 24.7853 147.88 24.9108 147.775Z" fill="#87A1FF"/>
<path d="M23.6663 148.827C23.7918 148.722 23.8022 148.532 23.6976 148.406C23.5931 148.28 23.4048 148.269 23.2793 148.374C23.1538 148.48 23.1434 148.669 23.2479 148.795C23.3525 148.922 23.5408 148.932 23.6663 148.827Z" fill="#87A1FF"/>
<path d="M26.6782 149.795C26.6572 149.805 26.6363 149.795 26.6259 149.816C26.5004 149.921 26.4899 150.111 26.5945 150.237C26.6154 150.258 26.6468 150.258 26.6677 150.268C26.6572 150.111 26.6677 149.953 26.6782 149.795Z" fill="#87A1FF"/>
<path d="M25.7996 150.9C25.695 150.774 25.5068 150.763 25.3813 150.868C25.2663 150.963 25.2558 151.121 25.329 151.247L25.7892 151.268C25.8728 151.152 25.8937 151.005 25.7996 150.9Z" fill="#87A1FF"/>
<path d="M22.0034 148.111C22.1289 148.006 22.1394 147.817 22.0348 147.691C21.9302 147.564 21.742 147.554 21.6165 147.659C21.491 147.764 21.4805 147.954 21.5851 148.08C21.6897 148.196 21.8779 148.217 22.0034 148.111Z" fill="#87A1FF"/>
<path d="M24.095 150.605C24.2205 150.5 24.2309 150.311 24.1263 150.184C24.0218 150.058 23.8335 150.048 23.708 150.153C23.5825 150.258 23.5721 150.447 23.6767 150.574C23.7812 150.689 23.9695 150.71 24.095 150.605Z" fill="#87A1FF"/>
<path d="M22.4635 149.458C22.4008 149.385 22.3066 149.364 22.2125 149.374C22.2962 149.532 22.3799 149.69 22.4635 149.827C22.5367 149.721 22.5576 149.574 22.4635 149.458Z" fill="#87A1FF"/>
<path d="M39.238 114.587C40.472 118.617 40.9217 122.521 40.8904 126.194L38.9347 127.246L40.7439 129.245C39.604 142.419 32.4299 151.941 32.4299 151.941L28.8219 150.984C22.9027 121.385 39.238 114.587 39.238 114.587Z" fill="#DEE5FF"/>
<path d="M30.6835 151.363C30.673 151.363 30.673 151.363 30.6626 151.363C30.5998 151.352 30.558 151.289 30.5789 151.226L37.4393 118.228C37.4498 118.165 37.5125 118.123 37.5753 118.144C37.638 118.155 37.6798 118.218 37.6589 118.281L30.7985 151.279C30.7881 151.321 30.7358 151.363 30.6835 151.363Z" fill="#859FFF"/>
<path d="M29.7005 151.31C29.7005 151.31 37.5334 134.748 25.9984 120.227C25.9984 120.227 14.6934 129.066 26.5945 151.31H29.7005Z" fill="#426BFF"/>
<path d="M28.1527 151.205C28.1109 151.205 28.0795 151.173 28.0795 151.131L25.4755 123.5C25.4755 123.458 25.5068 123.416 25.5487 123.416C25.5905 123.416 25.6323 123.447 25.6323 123.489L28.2364 151.121C28.2364 151.163 28.205 151.205 28.1527 151.205C28.1631 151.205 28.1527 151.205 28.1527 151.205Z" fill="white"/>
<path d="M24.5656 163.285H33.2353L35.6406 151.131H22.1708L24.5656 163.285Z" fill="white"/>
<path d="M33.2352 163.474H24.5656C24.4715 163.474 24.3983 163.411 24.3774 163.316L21.972 151.152C21.9616 151.1 21.972 151.037 22.0139 150.995C22.0452 150.952 22.108 150.921 22.1603 150.921H35.6301C35.6824 150.921 35.7451 150.942 35.7765 150.995C35.8079 151.037 35.8288 151.1 35.8183 151.152L33.413 163.316C33.4025 163.411 33.3293 163.474 33.2352 163.474ZM24.7225 163.095H33.0783L35.4 151.321H22.4008L24.7225 163.095Z" fill="#426BFF"/>
<path d="M34.6679 132.191C34.6156 132.191 34.5633 132.149 34.5529 132.086L33.4443 122.69C33.4339 122.626 33.4862 122.574 33.5385 122.563C33.6012 122.553 33.6535 122.605 33.664 122.658L34.7725 132.054C34.7829 132.118 34.7307 132.17 34.6784 132.181C34.6784 132.191 34.6679 132.191 34.6679 132.191Z" fill="#859FFF"/>
<path d="M33.1724 139.399C33.162 139.399 33.1515 139.399 33.1411 139.399C33.0783 139.388 33.0469 139.315 33.0574 139.252C33.0888 139.125 34.7411 137.452 37.9726 134.296C38.0145 134.254 38.0877 134.254 38.1295 134.296C38.1713 134.338 38.1713 134.411 38.1295 134.454C36.2471 136.295 33.4025 139.104 33.2666 139.315C33.2666 139.367 33.2247 139.399 33.1724 139.399Z" fill="#859FFF"/>
<path d="M35.0759 154.172H26.6886C26.584 154.172 26.5004 154.088 26.5004 153.983C26.5004 153.878 26.584 153.793 26.6886 153.793H35.0759C35.1804 153.793 35.2641 153.878 35.2641 153.983C35.2641 154.088 35.1804 154.172 35.0759 154.172Z" fill="#426BFF"/>
<path d="M64.5149 162.937C65.9068 162.937 67.0352 161.802 67.0352 160.401C67.0352 159.001 65.9068 157.866 64.5149 157.866C63.1229 157.866 61.9945 159.001 61.9945 160.401C61.9945 161.802 63.1229 162.937 64.5149 162.937Z" fill="#426BFF"/>
<path d="M84.8764 158.749H64.7449C64.4521 158.749 64.222 158.518 64.222 158.223C64.222 157.929 64.4521 157.697 64.7449 157.697H84.8764C85.1692 157.697 85.3993 157.929 85.3993 158.223C85.3993 158.518 85.1588 158.749 84.8764 158.749Z" fill="#426BFF"/>
<path d="M74.544 158.171C74.2512 158.171 74.0211 157.939 74.0211 157.645V115.166C74.0211 114.872 74.2512 114.64 74.544 114.64C74.8368 114.64 75.0669 114.872 75.0669 115.166V157.645C75.0669 157.929 74.8368 158.171 74.544 158.171Z" fill="#426BFF"/>
<path d="M87.3236 160.401C87.3236 161.801 86.1941 162.937 84.8032 162.937C83.4123 162.937 82.2828 161.801 82.2828 160.401C82.2828 159.002 83.4123 157.866 84.8032 157.866C86.1941 157.866 87.3236 159.002 87.3236 160.401Z" fill="#426BFF"/>
<path d="M59.8507 121.28H90.8898V118.123H58.9932L59.8507 121.28Z" fill="#3661FF"/>
<path d="M59.014 118.123L48.0854 81.0635H82.2305L74.9937 118.123H59.014Z" fill="#426BFF"/>
<path d="M99.4129 154.877L102.812 161.064L104.987 161.17L106.451 162.074C106.608 162.169 106.713 162.348 106.723 162.527C106.744 162.8 106.545 163.021 106.273 163.011L102.425 162.822L99.779 158.549C99.779 158.549 99.2142 158.15 99.1515 158.728C99.1097 159.191 99.3188 161.39 99.4025 162.295C99.4234 162.506 99.2875 162.674 99.0992 162.664C98.9214 162.653 98.7646 162.485 98.7436 162.285L98.3044 158.234C98.3149 158.234 97.1331 155.456 99.4129 154.877Z" fill="#FF6652"/>
<path d="M102.812 161.064L104.987 161.17L103.858 151.952L99.413 154.877L102.812 161.064Z" fill="#FFCDC7"/>
<path d="M103.858 151.952L103.46 148.122L95.6691 147.817L99.413 154.877L103.858 151.952Z" fill="#FFCDC7"/>
<path d="M78.1834 152.625L78.016 159.696L79.8462 160.885L80.6514 162.411C80.7351 162.58 80.7455 162.779 80.6619 162.937C80.5364 163.19 80.254 163.274 80.0344 163.127L76.8029 161.012L76.667 155.982C76.667 155.982 76.3741 155.351 76.0395 155.824C75.7676 156.192 74.8473 158.213 74.4708 159.033C74.3871 159.223 74.178 159.297 74.0211 159.191C73.8747 159.097 73.812 158.865 73.8956 158.686L75.5375 154.961C75.548 154.961 75.9245 151.963 78.1834 152.625Z" fill="#FF6652"/>
<path d="M78.016 159.696L79.8461 160.885L83.4855 152.352L78.1833 152.625L78.016 159.696Z" fill="#FFCDC7"/>
<path d="M83.4855 152.352L85.0646 148.837L78.4866 144.629L78.1833 152.625L83.4855 152.352Z" fill="#FFCDC7"/>
<path d="M78.1102 103.634C81.5823 104.465 85.7759 105.412 89.2165 106.359C92.5317 107.274 96.1397 107.443 99.3398 108.684C100.95 109.305 102.456 110.347 103.314 111.862C103.973 113.03 104.203 114.398 104.36 115.734C104.882 120.427 104.767 125.204 105.018 129.918C105.311 135.369 105.604 140.819 105.907 146.27C105.981 147.501 106.043 148.732 106.117 149.963L93.5043 150.363L89.1119 112.43L78.1102 103.634Z" fill="#FF4D36"/>
<path d="M96.0873 79.7272C96.0873 79.7272 96.1814 80.79 96.6207 81.1898C96.6521 81.2214 96.6939 81.2529 96.7253 81.2845C96.7357 81.5265 96.7776 81.7791 96.8926 82.0105C97.039 82.3367 97.154 82.6734 97.2691 83.0102C97.0913 83.0838 96.9553 83.1469 96.9449 83.1469C96.903 83.168 95.2402 83.8519 95.2402 83.8519L94.1631 84.4938L92.95 81.7264L96.0873 79.7272Z" fill="#FFCDC7"/>
<path d="M94.1945 80.9267L95.7004 79.7167L97.4364 77.4333C97.7397 77.5175 97.9175 77.7701 97.8547 78.0226L97.6874 78.7697C97.5933 79.1906 97.9489 79.622 98.4718 79.6746C98.4822 79.6746 98.4822 79.6746 98.4927 79.6746L94.1945 80.9267Z" fill="#FFCDC7"/>
<path d="M95.5959 80.8005L95.7423 80.2638L97.3423 79.6325L97.5829 79.8429L99.4234 79.2011C99.5071 79.2432 99.6744 79.3484 99.779 79.5483C99.915 79.8114 99.8418 80.0639 99.8104 80.1481C99.6849 80.2007 99.5594 80.2428 99.4339 80.2954C99.4653 80.2954 99.7476 80.3164 99.8627 80.5374C99.9463 80.6952 99.9045 80.9057 99.7476 81.0635C99.7999 81.074 100.02 81.1161 100.135 81.295C100.312 81.5581 100.093 81.8632 100.082 81.8843C99.9463 81.9369 99.8104 81.9895 99.6849 82.0421C99.8731 82.0526 100.03 82.1368 100.082 82.2841C100.145 82.4525 100.072 82.6524 99.8731 82.7892C99.3084 82.9154 98.7437 83.0417 98.179 83.1785L93.5356 84.5148L95.5959 80.8005Z" fill="#FFCDC7"/>
<path d="M99.4339 80.2954L98.0012 80.8531C97.6351 81.0004 97.4887 81.3582 97.6665 81.6633L97.8234 81.9264L97.9698 81.7896L98.8587 81.4108L99.4339 80.2954Z" fill="#FFCDC7"/>
<path d="M97.8338 82.1368C97.8234 82.1368 97.8129 82.1368 97.8024 82.1368C97.7397 82.1263 97.6874 82.0947 97.6456 82.0316L97.4887 81.7685C97.3737 81.5791 97.3528 81.3582 97.4155 81.1582C97.4887 80.9373 97.6769 80.7479 97.9175 80.6532L99.3502 80.0955C99.4548 80.0534 99.5803 80.106 99.6221 80.2112C99.6639 80.3165 99.6117 80.4427 99.5071 80.4848L98.0743 81.0425C97.9488 81.0951 97.8547 81.1793 97.8129 81.2845C97.7815 81.3687 97.792 81.4529 97.8443 81.537L97.8756 81.5897C97.8756 81.5897 97.8861 81.5897 97.8861 81.5791L98.775 81.2003C98.8796 81.1582 99.0051 81.2003 99.0469 81.3161C99.0888 81.4213 99.0365 81.5476 98.9319 81.5897L98.0953 81.9685L97.9802 82.0842C97.9384 82.1158 97.8861 82.1368 97.8338 82.1368Z" fill="#FF9284"/>
<path d="M99.7476 81.0635L98.1371 81.6949C97.8338 81.8106 97.6874 82.1052 97.8025 82.3262C97.907 82.5156 98.1894 82.5893 98.4509 82.4946L99.6849 82.0421L99.7476 81.0635Z" fill="#FFCDC7"/>
<path d="M98.2103 82.7471C97.9593 82.7471 97.7397 82.6313 97.6247 82.4314C97.541 82.2841 97.5306 82.1157 97.5933 81.9579C97.6665 81.758 97.8338 81.5896 98.0639 81.4949L99.6744 80.8636C99.779 80.8215 99.9045 80.8741 99.9464 80.9793C99.9882 81.0846 99.9359 81.2108 99.8313 81.2529L98.2208 81.8843C98.1058 81.9263 98.0221 82.0105 97.9907 82.0947C97.9698 82.1368 97.9803 82.1789 97.9907 82.221C98.043 82.3051 98.1999 82.3578 98.3777 82.2946L99.6117 81.8422C99.7163 81.8001 99.8418 81.8632 99.8836 81.9684C99.9254 82.0737 99.8731 82.1999 99.7581 82.242L98.5241 82.6945C98.4195 82.7366 98.3149 82.7471 98.2103 82.7471Z" fill="#FF9284"/>
<path d="M98.6496 82.4209L98.2731 82.5577C98.1163 82.6103 98.0326 82.7576 98.0744 82.8839C98.1058 82.9681 98.1686 83.0312 98.2522 83.0628C98.3463 83.1049 98.4509 83.1154 98.5764 83.0838L98.6496 82.4209Z" fill="#FFCDC7"/>
<path d="M98.4509 83.3153C98.3567 83.3153 98.2626 83.2943 98.1789 83.2627C98.043 83.1996 97.9384 83.0943 97.8861 82.9681C97.8443 82.8734 97.8548 82.7576 97.8966 82.6524C97.9489 82.5261 98.0639 82.4209 98.1999 82.3788L98.5764 82.242C98.6809 82.1999 98.8064 82.2631 98.8483 82.3683C98.8901 82.4735 98.8378 82.5998 98.7228 82.6419L98.3463 82.7787C98.294 82.7997 98.2731 82.8313 98.2731 82.8418C98.2835 82.8628 98.3149 82.8839 98.3358 82.8944C98.3881 82.9155 98.4613 82.926 98.5241 82.9049C98.6391 82.8839 98.7541 82.947 98.775 83.0628C98.796 83.1785 98.7332 83.2837 98.6182 83.3153C98.5659 83.3048 98.5031 83.3153 98.4509 83.3153Z" fill="#FF9284"/>
<path d="M98.8797 79.3694L97.0391 80.0534L97.1332 80.2533C97.311 80.6426 97.8339 80.8531 98.3149 80.7268L98.9319 80.5058L98.8797 79.3694Z" fill="#FFCDC7"/>
<path d="M98.0431 80.9794C97.5725 80.9794 97.1228 80.7373 96.945 80.348L96.8509 80.1481C96.8299 80.0955 96.8195 80.0324 96.8509 79.9797C96.8718 79.9271 96.9136 79.885 96.9764 79.864L98.8169 79.18C98.932 79.138 99.047 79.1906 99.0889 79.3063C99.1307 79.4115 99.0784 79.5378 98.9634 79.5799L97.3319 80.1902C97.4679 80.4848 97.8862 80.6426 98.2731 80.5479L98.8692 80.327C98.9738 80.2849 99.0993 80.348 99.1411 80.4532C99.183 80.5585 99.1202 80.6847 99.0157 80.7268L98.3986 80.9478C98.2731 80.9583 98.1581 80.9794 98.0431 80.9794Z" fill="#FF9284"/>
<path d="M81.76 85.0199L82.1678 86.9034L92.7199 81.3582L95.0415 85.0515L84.2699 93.6692C82.011 95.479 78.8108 95.4685 76.5624 93.6587L75.0983 92.3539L79.6161 85.767C80.1704 84.9357 80.6096 84.1886 80.3795 83.2101L80.3063 82.8944L81.76 85.0199Z" fill="#384B61"/>
<path d="M72.2223 72.1827C72.2223 72.1827 76.5101 72.1827 75.3283 63.6702L71.7204 59.9138C71.7204 59.9138 66.6587 58.6195 66.0417 66.0482C66.0417 66.0482 64.7658 65.6905 64.5149 66.9321C64.2639 68.1737 65.341 68.7104 66.3764 68.6683L66.2509 75.9287C66.2509 75.9287 66.5437 79.1274 69.566 80.0849C70.7373 80.4637 72.0236 80.3901 73.1531 79.8955C74.1989 79.4431 76.2173 78.233 76.1231 76.6021L72.5361 76.4442L72.2223 72.1827Z" fill="#FFCDC7"/>
<path d="M66.2509 75.6551C66.1986 75.613 65.8012 75.5919 65.7385 75.5919C63.4586 75.634 61.1265 75.634 58.899 76.1917C57.6022 77.4649 56.2113 78.4961 56.2113 80.327L61.4507 87.2296C61.4507 87.2296 58.3238 90.4915 62.4965 88.85L63.1135 100.172C68.834 100.172 72.557 100.14 77.284 100.109L80.9966 89.3761C81.4672 87.9767 81.5195 86.472 81.1639 85.0409L81.76 85.0199C81.3521 83.9466 80.9338 82.8839 80.5678 81.8001C80.0031 80.1165 79.02 78.3488 77.8696 77.0125C77.5454 76.6442 77.1899 76.2864 76.7506 76.076C76.1127 75.7603 75.3493 75.8866 74.7009 76.1286C74.2303 76.3075 74.3244 76.9493 74.2407 77.3597C74.1362 77.9279 73.8433 78.3804 73.3205 78.6645C72.7662 78.9591 72.1073 79.0012 71.4799 78.9906C70.3504 78.9696 69.2105 78.7697 68.2065 78.2541C67.2026 77.7385 66.6797 76.8862 66.3241 75.8129C66.3136 75.7498 66.2927 75.6972 66.2509 75.6551Z" fill="#384B61"/>
<path d="M66.0521 66.0588C66.0521 66.0588 69.9947 66.0167 71.7726 62.0603C71.7726 62.0603 72.6406 63.8912 75.4015 64.1648C75.7989 64.2069 75.0877 59.8191 74.91 59.5139C72.9229 55.9469 64.2743 57.3779 64.1383 61.7657L64.5252 66.9532C64.5148 66.9426 64.7239 65.7641 66.0521 66.0588Z" fill="#FF6652"/>
<path d="M78.8003 95.9946C78.769 95.9946 78.7376 95.9946 78.7167 95.9841C78.5493 95.9315 78.4552 95.7631 78.5075 95.5948C78.5284 95.5211 80.7141 87.9872 81.0906 86.7666C81.2475 86.2615 80.7664 85.4513 80.5886 85.2093L75.8721 78.3172C75.778 78.1699 75.8094 77.9805 75.9558 77.8753C76.1022 77.7806 76.2904 77.8121 76.395 77.9595L81.1011 84.841C81.1847 84.9568 81.9691 86.0616 81.6867 86.956C81.3102 88.1661 79.1245 95.7 79.1036 95.7736C79.0618 95.8999 78.9363 95.9946 78.8003 95.9946Z" fill="#212B38"/>
<path d="M62.4965 89.1657C62.3187 89.1657 62.1827 89.0289 62.1827 88.85V82.5787C62.1827 82.3999 62.3187 82.2631 62.4965 82.2631C62.6743 82.2631 62.8102 82.3999 62.8102 82.5787V88.85C62.8102 89.0289 62.6638 89.1657 62.4965 89.1657Z" fill="#194BFF"/>
<path d="M72.2223 72.1827C72.2223 72.1827 70.0052 72.3721 68.6353 70.4676C68.6353 70.4676 69.3778 73.2244 72.3583 73.498L72.2223 72.1827Z" fill="#FF887A"/>
<path d="M67.6103 56.6624C67.6103 59.2719 65.5083 61.3869 62.9147 61.3869C60.3212 61.3869 58.2191 59.2719 58.2191 56.6624C58.2191 54.0529 60.3212 51.9379 62.9147 51.9379C65.5187 51.9379 67.6103 54.0529 67.6103 56.6624Z" fill="#FF6652"/>
<path d="M82.9417 94.4373L83.9561 94.1006L86.4242 93.9112L87.3968 94.6162C87.5223 94.7109 87.6687 94.753 87.8151 94.753L89.5407 94.774C89.708 94.8056 89.8544 94.6898 89.8649 94.553C89.8649 94.4373 89.7707 94.3216 89.6348 94.3005C89.4675 94.2689 89.3001 94.2374 89.1328 94.2058L90.7224 93.9533C90.7956 93.9428 90.8584 93.8796 90.8688 93.806C90.8793 93.7323 90.8479 93.6692 90.7851 93.6271C91.0048 93.585 91.2244 93.5429 91.444 93.5008C91.5486 93.4692 91.6218 93.3535 91.6113 93.2483C91.6009 93.1431 91.5277 93.0589 91.4335 93.0273C90.7119 92.9852 89.9903 92.9326 89.2688 92.8905L88.4321 92.396L89.6871 92.5854L91.5381 92.5959C91.6113 92.5854 91.6741 92.5433 91.695 92.4696C91.7264 92.3855 91.6845 92.2908 91.6009 92.2381C90.2727 91.8173 88.9341 91.3964 87.6059 90.986L86.2255 90.6177L86.2673 90.3967L87.1249 90.0495C87.4072 89.9338 87.6478 89.7549 87.8465 89.5234C88.0766 89.2498 88.0556 88.8394 87.8046 88.5869L86.7693 89.2709C86.7693 89.2709 85.3993 89.797 85.347 89.8075C85.2947 89.818 83.2136 90.6598 83.2136 90.6598L81.7809 90.9334L82.9417 94.4373Z" fill="#FFCDC7"/>
<path d="M88.9341 93.7849C88.9236 93.7849 88.9132 93.7849 88.9027 93.7744L87.3863 93.2272C87.334 93.2062 87.3027 93.1431 87.3236 93.0904C87.3445 93.0378 87.4072 93.0063 87.4595 93.0273L88.955 93.564L90.7851 93.5113C90.8479 93.5219 90.8897 93.5534 90.8897 93.6166C90.8897 93.6797 90.8479 93.7218 90.7851 93.7218L88.9341 93.7849Z" fill="#FF887A"/>
<path d="M89.0177 94.29L88.2229 94.2479C88.2125 94.2479 88.202 94.2479 88.1915 94.2374L87.0935 93.8375C87.0412 93.8165 87.0098 93.7534 87.0307 93.7007C87.0516 93.6481 87.1039 93.6166 87.1667 93.6376L88.2543 94.0269L89.0282 94.069C89.0909 94.069 89.1328 94.1216 89.1223 94.1848C89.1223 94.2479 89.07 94.29 89.0177 94.29Z" fill="#FF887A"/>
<path d="M83.1614 94.7845L81.6345 90.3862L65.9163 92.859L67.5895 99.6563L83.1614 94.7845Z" fill="#384B61"/>
<path d="M63.239 86.4614C62.7475 86.3983 62.3187 86.2615 61.8272 86.1668C60.2167 85.8406 59.8716 85.9774 58.533 86.9665L64.7554 97.6887C65.6443 99.2144 67.5477 99.7931 69.1164 99.004L72.2537 97.4467L67.3594 85.7144C65.9162 86.3983 64.724 86.6614 63.239 86.4614Z" fill="#384B61"/>
<path d="M59.4009 88.4607L57.3198 85.062C56.4727 83.6836 55.9916 82.0842 56.0753 80.4743C56.1799 78.6013 56.9433 76.823 58.8989 76.2022C61.4402 75.3815 64.1802 76.6547 65.2051 79.1379L68.698 88.4712H59.4009V88.4607Z" fill="#384B61"/>
<path d="M69.9321 92.3118C69.8066 92.3118 69.6811 92.2276 69.6392 92.1014L68.217 88.0503L65.2155 80.0323C65.1528 79.8745 65.2365 79.6851 65.4038 79.622C65.5711 79.5588 65.7489 79.643 65.8116 79.8114L68.8131 87.8399L70.2458 91.9015C70.3085 92.0698 70.2144 92.2487 70.0575 92.3013C70.0053 92.3118 69.9634 92.3118 69.9321 92.3118Z" fill="#212B38"/>
<path d="M70.1308 92.6696C69.9844 92.6696 69.8484 92.5643 69.817 92.4065C69.7857 92.2382 69.9007 92.0698 70.0785 92.0382L81.5822 90.0706C81.76 90.0495 81.9168 90.1547 81.9482 90.3336C81.9796 90.502 81.8645 90.6703 81.6868 90.7019L70.1831 92.6696C70.1621 92.659 70.1412 92.6696 70.1308 92.6696Z" fill="#212B38"/>
<path d="M68.6039 98.7199C66.8365 98.7199 65.1527 97.8044 64.2011 96.2471L63.0507 94.3531C62.9566 94.2058 63.0089 94.0059 63.1553 93.9217C63.3017 93.827 63.5004 93.8796 63.5841 94.0269L64.7344 95.921C65.7384 97.5624 67.6626 98.3937 69.5346 97.9938L77.8486 96.2261C78.016 96.1945 78.1833 96.2998 78.2251 96.4681C78.2565 96.6365 78.1519 96.8048 77.9846 96.8469L69.6706 98.6147C69.3045 98.6778 68.949 98.7199 68.6039 98.7199Z" fill="#212B38"/>
<path d="M95.052 111.105L78.9364 104.076H62.6639C62.6639 104.076 56.5146 113.535 62.6743 118.028H70.7687C70.7687 118.06 70.7687 118.091 70.7687 118.123H88.0766L75.1088 144.229L87.7628 151.531L100.135 125.036C101.4 122.49 101.525 119.649 100.678 117.123C99.7476 114.409 97.6456 112.273 95.052 111.105Z" fill="#FF6652"/>
<path d="M120.538 104.423H40.5976C39.4368 104.423 38.4956 103.476 38.4956 102.308V102.161C38.4956 100.993 39.4368 100.046 40.5976 100.046H120.538C121.699 100.046 122.64 100.993 122.64 102.161V102.308C122.64 103.476 121.699 104.423 120.538 104.423Z" fill="#FDA74C"/>
<path d="M120.025 163.526C119.775 163.526 119.555 163.348 119.513 163.085L109.704 104.802C109.651 104.518 109.85 104.244 110.132 104.191C110.415 104.139 110.687 104.339 110.739 104.623L120.548 162.906C120.601 163.19 120.402 163.463 120.12 163.516C120.088 163.526 120.057 163.526 120.025 163.526Z" fill="#426BFF"/>
<path d="M39.9598 163.527C39.9284 163.527 39.897 163.526 39.8761 163.516C39.5937 163.463 39.395 163.2 39.4473 162.906L49.2569 104.623C49.3091 104.339 49.5811 104.149 49.8634 104.191C50.1458 104.244 50.3445 104.507 50.2922 104.802L40.4722 163.095C40.4304 163.348 40.2003 163.527 39.9598 163.527Z" fill="#426BFF"/>
<path d="M78.1311 100.046H87.7419V98.2043H79.9717C78.9468 98.2043 78.1311 99.025 78.1311 100.046Z" fill="#2D57F0"/>
<path d="M86.5811 100.046H114.295L118.697 86.0721C119.095 84.8305 118.164 83.5573 116.867 83.5573H93.18C92.3434 83.5573 91.6008 84.1045 91.3499 84.9042L86.5811 100.046Z" fill="#2D57F0"/>
<path d="M105.709 92.5118C105.28 93.2589 104.38 93.5535 103.711 93.1747C103.042 92.7854 102.854 91.8594 103.282 91.1123C103.711 90.3652 104.611 90.0706 105.28 90.4494C105.949 90.8282 106.137 91.7542 105.709 92.5118Z" fill="#7895FF"/>
<path d="M290.374 164H12.2358C11.943 164 11.7129 163.768 11.7129 163.474C11.7129 163.179 11.943 162.948 12.2358 162.948H290.374C290.667 162.948 290.897 163.179 290.897 163.474C290.897 163.768 290.667 164 290.374 164Z" fill="#C9D5FF"/>
</svg>
