<svg width="76" height="76" viewBox="0 0 76 76" fill="none" xmlns="http://www.w3.org/2000/svg">
<path fill-rule="evenodd" clip-rule="evenodd" d="M76 37.9992C76 58.9863 58.9875 76 37.9992 76C17.0125 76 0 58.9863 0 37.9992C0 17.0153 17.0125 1.12981e-05 37.9992 1.12981e-05C48.0593 -0.00775823 57.7146 3.992 64.8702 11.1306C71.9843 18.2273 75.9923 27.9019 76 37.9992Z" fill="#FF6600"/>
<path fill-rule="evenodd" clip-rule="evenodd" d="M36.9204 61.286C28.0024 60.8633 20.1095 55.3889 16.5894 47.1859C13.0693 38.9812 14.5469 29.4636 20.3819 22.7367C20.9514 22.0825 21.9395 22.0172 22.5891 22.5937C22.6091 22.6108 22.6291 22.6295 22.6476 22.6481L26.6848 26.6852C27.2466 27.2384 27.2928 28.1303 26.7926 28.7394C22.7122 33.6638 22.3459 40.7185 25.8952 46.0468C29.4446 51.383 36.0692 53.7666 42.2044 51.9128C48.338 50.0606 52.5369 44.4075 52.5384 37.9992C52.5292 34.5355 51.2701 31.1931 48.9968 28.598C48.4627 28.0122 48.4627 27.1109 48.9968 26.5251L53.1218 22.4352C53.7082 21.809 54.6871 21.781 55.3089 22.3731C55.3305 22.3933 55.3505 22.4135 55.3705 22.4352C61.6503 29.3998 63.1203 39.5142 59.0861 48.0063C55.0534 56.4984 46.3109 61.7351 36.9204 61.2844V61.286Z" fill="white"/>
</svg>
