<svg width="196" height="63" viewBox="0 0 196 63" fill="none" xmlns="http://www.w3.org/2000/svg">
<path fill-rule="evenodd" clip-rule="evenodd" d="M62.6444 31.3215C62.6444 48.6205 48.6215 62.6444 31.3215 62.6444C14.0229 62.6444 0 48.6205 0 31.3215C0 14.0252 14.0229 9.31265e-06 31.3215 9.31265e-06C39.6137 -0.00639486 47.5723 3.29047 53.4704 9.17463C59.3343 15.0242 62.638 22.9987 62.6444 31.3215Z" fill="#FF6600"/>
<path fill-rule="evenodd" clip-rule="evenodd" d="M30.4323 50.516C23.0814 50.1676 16.5756 45.6552 13.6741 38.8937C10.7726 32.1309 11.9905 24.2858 16.8001 18.741C17.2696 18.2018 18.0841 18.148 18.6194 18.6232C18.6359 18.6373 18.6524 18.6526 18.6677 18.668L21.9954 21.9956C22.4585 22.4516 22.4966 23.1868 22.0842 23.6889C18.7209 27.7479 18.419 33.5628 21.3446 37.9548C24.2702 42.3532 29.7307 44.318 34.7877 42.79C39.8434 41.2632 43.3044 36.6035 43.3057 31.3214C43.2981 28.4664 42.2603 25.7113 40.3864 23.5723C39.9462 23.0895 39.9462 22.3466 40.3864 21.8637L43.7865 18.4925C44.2699 17.9764 45.0768 17.9533 45.5894 18.4413C45.6071 18.458 45.6236 18.4746 45.6401 18.4925C50.8164 24.2332 52.028 32.5702 48.7027 39.57C45.3788 46.5697 38.1726 50.8861 30.4323 50.5147V50.516Z" fill="white"/>
<path d="M80.7443 23.5882H94.6943V26.9782H84.3593V32.3032H92.8943V35.6932H84.3593V41.7982H94.6943V45.1882H80.7443V23.5882ZM102.418 36.9982L96.6132 28.9882H100.873L104.518 34.1632L108.103 28.9882H112.363L106.558 36.9982L112.513 45.1882H108.253L104.518 39.8332L100.753 45.1882H96.4932L102.418 36.9982ZM121.354 45.6382C119.724 45.6382 118.309 45.2732 117.109 44.5432C115.919 43.8032 115.009 42.7882 114.379 41.4982C113.749 40.1982 113.429 38.7282 113.419 37.0882C113.419 35.4382 113.744 33.9682 114.394 32.6782C115.044 31.3782 115.969 30.3632 117.169 29.6332C118.379 28.9032 119.789 28.5382 121.399 28.5382C122.619 28.5382 123.724 28.7482 124.714 29.1682C125.704 29.5882 126.529 30.1882 127.189 30.9682C127.859 31.7382 128.319 32.6532 128.569 33.7132L124.969 34.6882C124.699 33.8282 124.234 33.1532 123.574 32.6632C122.924 32.1732 122.184 31.9282 121.354 31.9282C119.994 31.9282 118.969 32.3982 118.279 33.3382C117.599 34.2782 117.254 35.5282 117.244 37.0882C117.254 38.6782 117.609 39.9382 118.309 40.8682C119.009 41.7882 120.024 42.2482 121.354 42.2482C122.294 42.2482 123.044 42.0382 123.604 41.6182C124.164 41.1882 124.589 40.5432 124.879 39.6832L128.569 40.5082C128.069 42.1582 127.194 43.4282 125.944 44.3182C124.694 45.1982 123.164 45.6382 121.354 45.6382ZM137.649 45.6532C135.839 45.6532 134.464 45.1982 133.524 44.2882C132.584 43.3682 131.974 42.3482 131.694 41.2282C131.414 40.1082 131.274 39.0432 131.274 38.0332V28.9882H134.934V36.7882C134.934 40.4282 136.194 42.2482 138.714 42.2482C139.804 42.2482 140.709 41.8782 141.429 41.1382C142.149 40.3882 142.509 39.1132 142.509 37.3132V28.9882H146.139V45.1882H142.944V43.3882C142.334 44.1082 141.584 44.6682 140.694 45.0682C139.804 45.4582 138.789 45.6532 137.649 45.6532ZM150.354 28.9882H153.549V31.5832C153.989 30.8232 154.529 30.2432 155.169 29.8432C155.619 29.5332 156.129 29.3032 156.699 29.1532C157.269 28.9932 157.854 28.9132 158.454 28.9132C158.764 28.9132 159.104 28.9382 159.474 28.9882V32.3632C159.094 32.2632 158.704 32.2132 158.304 32.2132C157.474 32.2132 156.749 32.3932 156.129 32.7532C155.409 33.1432 154.869 33.6982 154.509 34.4182C154.159 35.1382 153.984 35.9832 153.984 36.9532V45.1882H150.354V28.9882ZM168.005 45.6382C166.005 45.6382 164.38 45.1882 163.13 44.2882C161.88 43.3882 161.12 42.1232 160.85 40.4932L164.54 39.9232C164.72 40.7332 165.135 41.3682 165.785 41.8282C166.445 42.2782 167.27 42.5032 168.26 42.5032C169.12 42.5032 169.79 42.3332 170.27 41.9932C170.75 41.6432 170.99 41.1682 170.99 40.5682C170.99 40.1782 170.895 39.8782 170.705 39.6682C170.525 39.4582 170.16 39.2532 169.61 39.0532C169.06 38.8432 168.145 38.5682 166.865 38.2282C165.495 37.8682 164.41 37.4832 163.61 37.0732C162.82 36.6532 162.25 36.1632 161.9 35.6032C161.55 35.0332 161.375 34.3382 161.375 33.5182C161.375 32.5182 161.635 31.6432 162.155 30.8932C162.685 30.1432 163.43 29.5632 164.39 29.1532C165.36 28.7432 166.48 28.5382 167.75 28.5382C169 28.5382 170.115 28.7332 171.095 29.1232C172.075 29.5132 172.865 30.0732 173.465 30.8032C174.075 31.5232 174.445 32.3632 174.575 33.3232L170.885 33.9832C170.785 33.2932 170.465 32.7482 169.925 32.3482C169.395 31.9482 168.69 31.7232 167.81 31.6732C166.96 31.6332 166.275 31.7682 165.755 32.0782C165.235 32.3782 164.975 32.7982 164.975 33.3382C164.975 33.6682 165.08 33.9382 165.29 34.1482C165.51 34.3582 165.925 34.5732 166.535 34.7932C167.145 35.0032 168.1 35.2732 169.4 35.6032C170.71 35.9432 171.745 36.3232 172.505 36.7432C173.275 37.1632 173.83 37.6682 174.17 38.2582C174.52 38.8382 174.695 39.5532 174.695 40.4032C174.695 41.4832 174.425 42.4182 173.885 43.2082C173.355 43.9882 172.585 44.5882 171.575 45.0082C170.575 45.4282 169.385 45.6382 168.005 45.6382ZM182.195 45.0682L175.64 28.9882H179.405L183.935 40.5832L188.33 28.9882H191.945L182.915 52.3882H179.525L182.195 45.0682Z" fill="white"/>
</svg>
