<svg width="145" height="44" viewBox="0 0 145 44" fill="none" xmlns="http://www.w3.org/2000/svg">
<path fill-rule="evenodd" clip-rule="evenodd" d="M44 21.9996C44 34.15 34.1506 44 21.9996 44C9.84936 44 0 34.15 0 21.9996C0 9.85095 9.84936 6.541e-06 21.9996 6.541e-06C27.8238 -0.00449161 33.4137 2.31116 37.5564 6.44405C41.6751 10.5527 43.9955 16.1538 44 21.9996Z" fill="#FF6600"/>
<path fill-rule="evenodd" clip-rule="evenodd" d="M21.3749 35.4814C16.2118 35.2367 11.6423 32.0673 9.60431 27.3181C7.56636 22.5681 8.42182 17.0578 11.8 13.1634C12.1297 12.7846 12.7018 12.7468 13.0778 13.0806C13.0894 13.0905 13.101 13.1013 13.1117 13.1121L15.4491 15.4493C15.7743 15.7696 15.801 16.286 15.5114 16.6386C13.1491 19.4895 12.937 23.5739 14.9919 26.6587C17.0468 29.748 20.8821 31.1281 24.4341 30.0548C27.9851 28.9824 30.416 25.7096 30.4169 21.9995C30.4116 19.9942 29.6827 18.0591 28.3665 16.5568C28.0573 16.2176 28.0573 15.6958 28.3665 15.3566L30.7546 12.9888C31.0942 12.6263 31.6609 12.6101 32.0209 12.9528C32.0334 12.9645 32.045 12.9762 32.0565 12.9888C35.6922 17.021 36.5433 22.8767 34.2077 27.7931C31.873 32.7096 26.8115 35.7414 21.3749 35.4805V35.4814Z" fill="white"/>
<path d="M55.68 32V14.72H66.84V17.432H58.572V21.692H65.4V24.404H58.572V29.288H66.84V32H55.68ZM68.2791 32L73.0191 25.448L68.3751 19.04H71.7831L74.6991 23.18L77.5671 19.04H80.9751L76.3311 25.448L81.0951 32H77.6871L74.6991 27.716L71.6871 32H68.2791ZM88.1674 32.36C86.8314 32.36 85.6914 32.064 84.7474 31.472C83.8034 30.872 83.0794 30.056 82.5754 29.024C82.0794 27.992 81.8274 26.824 81.8194 25.52C81.8274 24.192 82.0874 23.016 82.5994 21.992C83.1194 20.96 83.8554 20.152 84.8074 19.568C85.7594 18.976 86.8914 18.68 88.2034 18.68C89.6754 18.68 90.9194 19.052 91.9354 19.796C92.9594 20.532 93.6274 21.54 93.9394 22.82L91.0594 23.6C90.8354 22.904 90.4634 22.364 89.9434 21.98C89.4234 21.588 88.8314 21.392 88.1674 21.392C87.4154 21.392 86.7954 21.572 86.3074 21.932C85.8194 22.284 85.4594 22.772 85.2274 23.396C84.9954 24.02 84.8794 24.728 84.8794 25.52C84.8794 26.752 85.1554 27.748 85.7074 28.508C86.2594 29.268 87.0794 29.648 88.1674 29.648C88.9354 29.648 89.5394 29.472 89.9794 29.12C90.4274 28.768 90.7634 28.26 90.9874 27.596L93.9394 28.256C93.5394 29.576 92.8394 30.592 91.8394 31.304C90.8394 32.008 89.6154 32.36 88.1674 32.36ZM101.204 32.372C100.244 32.372 99.4521 32.212 98.8281 31.892C98.2041 31.572 97.7081 31.164 97.3401 30.668C96.9721 30.172 96.7001 29.644 96.5241 29.084C96.3481 28.524 96.2321 27.996 96.1761 27.5C96.1281 26.996 96.1041 26.588 96.1041 26.276V19.04H99.0321V25.28C99.0321 25.68 99.0601 26.132 99.1161 26.636C99.1721 27.132 99.3001 27.612 99.5001 28.076C99.7081 28.532 100.012 28.908 100.412 29.204C100.82 29.5 101.368 29.648 102.056 29.648C102.424 29.648 102.788 29.588 103.148 29.468C103.508 29.348 103.832 29.144 104.12 28.856C104.416 28.56 104.652 28.156 104.828 27.644C105.004 27.132 105.092 26.484 105.092 25.7L106.808 26.432C106.808 27.536 106.592 28.536 106.16 29.432C105.736 30.328 105.108 31.044 104.276 31.58C103.444 32.108 102.42 32.372 101.204 32.372ZM105.44 32V27.98H105.092V19.04H107.996V32H105.44ZM111.368 32V19.04H113.924V22.196L113.612 21.788C113.772 21.356 113.984 20.964 114.248 20.612C114.52 20.252 114.844 19.956 115.22 19.724C115.54 19.508 115.892 19.34 116.276 19.22C116.668 19.092 117.068 19.016 117.476 18.992C117.884 18.96 118.28 18.976 118.664 19.04V21.74C118.28 21.628 117.836 21.592 117.332 21.632C116.836 21.672 116.388 21.812 115.988 22.052C115.588 22.268 115.26 22.544 115.004 22.88C114.756 23.216 114.572 23.6 114.452 24.032C114.332 24.456 114.272 24.916 114.272 25.412V32H111.368ZM125.489 32.36C123.889 32.36 122.589 32 121.589 31.28C120.589 30.56 119.981 29.548 119.765 28.244L122.717 27.788C122.869 28.428 123.205 28.932 123.725 29.3C124.245 29.668 124.901 29.852 125.693 29.852C126.389 29.852 126.925 29.716 127.301 29.444C127.685 29.164 127.877 28.784 127.877 28.304C127.877 28.008 127.805 27.772 127.661 27.596C127.525 27.412 127.221 27.236 126.749 27.068C126.277 26.9 125.553 26.688 124.577 26.432C123.489 26.144 122.625 25.836 121.985 25.508C121.345 25.172 120.885 24.776 120.605 24.32C120.325 23.864 120.185 23.312 120.185 22.664C120.185 21.856 120.397 21.152 120.821 20.552C121.245 19.952 121.837 19.492 122.597 19.172C123.357 18.844 124.253 18.68 125.285 18.68C126.293 18.68 127.185 18.836 127.961 19.148C128.745 19.46 129.377 19.904 129.857 20.48C130.337 21.056 130.633 21.732 130.745 22.508L127.793 23.036C127.721 22.484 127.469 22.048 127.037 21.728C126.613 21.408 126.045 21.228 125.333 21.188C124.653 21.148 124.105 21.252 123.689 21.5C123.273 21.74 123.065 22.08 123.065 22.52C123.065 22.768 123.149 22.98 123.317 23.156C123.485 23.332 123.821 23.508 124.325 23.684C124.837 23.86 125.597 24.076 126.605 24.332C127.637 24.596 128.461 24.9 129.077 25.244C129.701 25.58 130.149 25.984 130.421 26.456C130.701 26.928 130.841 27.5 130.841 28.172C130.841 29.476 130.365 30.5 129.413 31.244C128.469 31.988 127.161 32.36 125.489 32.36ZM134.704 37.76L137.2 30.908L137.248 32.924L131.596 19.04H134.608L138.616 29.312H137.848L141.748 19.04H144.64L137.416 37.76H134.704Z" fill="#2B2B2B"/>
</svg>
