<svg width="32" height="34" viewBox="0 0 32 34" fill="none" xmlns="http://www.w3.org/2000/svg">
<path d="M22 33.0006V27.1956C22.0563 26.4804 21.9596 25.7613 21.7165 25.0863C21.4734 24.4113 21.0894 23.7958 20.59 23.2806C25.3 22.7556 30.25 20.9706 30.25 12.7806C30.2496 10.6864 29.444 8.67244 28 7.15564C28.6838 5.3234 28.6354 3.29816 27.865 1.50064C27.865 1.50064 26.095 0.975639 22 3.72064C18.562 2.78887 14.938 2.78887 11.5 3.72064C7.405 0.975639 5.635 1.50064 5.635 1.50064C4.86456 3.29816 4.81622 5.3234 5.5 7.15564C4.04519 8.68369 3.23878 10.7158 3.25 12.8256C3.25 20.9556 8.2 22.7406 12.91 23.3256C12.4165 23.8356 12.0359 24.4437 11.793 25.1105C11.55 25.7773 11.4502 26.4877 11.5 27.1956V33.0006M11.5 28.5006C4 30.7506 4 24.7506 1 24.0006L11.5 28.5006Z" stroke="white" stroke-width="2" stroke-linecap="round" stroke-linejoin="round"/>
</svg>
