<svg width="0" height="0" class="hidden">
  <symbol fill="none" xmlns="http://www.w3.org/2000/svg" viewBox="0 0 36 36" id="facebook">
    <path d="M27 3H22.5C20.5109 3 18.6032 3.79018 17.1967 5.1967C15.7902 6.60322 15 8.51088 15 10.5V15H10.5V21H15V33H21V21H25.5L27 15H21V10.5C21 10.1022 21.158 9.72064 21.4393 9.43934C21.7206 9.15804 22.1022 9 22.5 9H27V3Z" stroke="white" stroke-width="2" stroke-linecap="round" stroke-linejoin="round"></path>
  </symbol>
  <symbol fill="none" xmlns="http://www.w3.org/2000/svg" viewBox="0 0 36 36" id="linkedin">
    <path d="M24 12C26.3869 12 28.6761 12.9482 30.364 14.636C32.0518 16.3239 33 18.6131 33 21V31.5H27V21C27 20.2044 26.6839 19.4413 26.1213 18.8787C25.5587 18.3161 24.7956 18 24 18C23.2044 18 22.4413 18.3161 21.8787 18.8787C21.3161 19.4413 21 20.2044 21 21V31.5H15V21C15 18.6131 15.9482 16.3239 17.636 14.636C19.3239 12.9482 21.6131 12 24 12V12Z" stroke="white" stroke-width="2" stroke-linecap="round" stroke-linejoin="round"></path>
    <path d="M9 13.5H3V31.5H9V13.5Z" stroke="white" stroke-width="2" stroke-linecap="round" stroke-linejoin="round"></path>
    <path d="M6 9C7.65685 9 9 7.65685 9 6C9 4.34315 7.65685 3 6 3C4.34315 3 3 4.34315 3 6C3 7.65685 4.34315 9 6 9Z" stroke="white" stroke-width="2" stroke-linecap="round" stroke-linejoin="round"></path>
  </symbol>
  <symbol fill="none" xmlns="http://www.w3.org/2000/svg" viewBox="0 0 32 34" id="reddit">
    <path d="M22 33.0006V27.1956C22.0563 26.4804 21.9596 25.7613 21.7165 25.0863C21.4734 24.4113 21.0894 23.7958 20.59 23.2806C25.3 22.7556 30.25 20.9706 30.25 12.7806C30.2496 10.6864 29.444 8.67244 28 7.15564C28.6838 5.3234 28.6354 3.29816 27.865 1.50064C27.865 1.50064 26.095 0.975639 22 3.72064C18.562 2.78887 14.938 2.78887 11.5 3.72064C7.405 0.975639 5.635 1.50064 5.635 1.50064C4.86456 3.29816 4.81622 5.3234 5.5 7.15564C4.04519 8.68369 3.23878 10.7158 3.25 12.8256C3.25 20.9556 8.2 22.7406 12.91 23.3256C12.4165 23.8356 12.0359 24.4437 11.793 25.1105C11.55 25.7773 11.4502 26.4877 11.5 27.1956V33.0006M11.5 28.5006C4 30.7506 4 24.7506 1 24.0006L11.5 28.5006Z" stroke="white" stroke-width="2" stroke-linecap="round" stroke-linejoin="round"></path>
  </symbol>
  <symbol fill="none" xmlns="http://www.w3.org/2000/svg" viewBox="0 0 36 36" id="twitch">
    <path d="M24 16.5V10.5M31.5 3H4.5V27H12V33L18 27H25.5L31.5 21V3ZM16.5 16.5V10.5V16.5Z" stroke="white" stroke-width="2" stroke-linecap="round" stroke-linejoin="round"></path>
  </symbol>
</svg>