<svg width="32" height="32" viewBox="0 0 32 32" fill="none" xmlns="http://www.w3.org/2000/svg">
<path fill-rule="evenodd" clip-rule="evenodd" d="M15.6665 6C15.5452 6 15.2465 6.03333 15.0879 6.35067L12.6532 11.2187C12.2679 11.988 11.5252 12.5227 10.6665 12.6453L5.21588 13.4307C4.85588 13.4827 4.73321 13.7493 4.69588 13.8613C4.66254 13.9693 4.60921 14.244 4.85721 14.4813L8.79854 18.268C9.42654 18.872 9.71188 19.7427 9.56254 20.5947L8.63454 25.9413C8.57721 26.276 8.78654 26.4707 8.87988 26.5373C8.97854 26.612 9.24254 26.76 9.56921 26.5893L14.4425 24.0627C15.2105 23.6667 16.1252 23.6667 16.8905 24.0627L21.7625 26.588C22.0905 26.7573 22.3545 26.6093 22.4545 26.5373C22.5479 26.4707 22.7572 26.276 22.6999 25.9413L21.7692 20.5947C21.6199 19.7427 21.9052 18.872 22.5332 18.268L26.4745 14.4813C26.7239 14.244 26.6705 13.968 26.6359 13.8613C26.5999 13.7493 26.4772 13.4827 26.1172 13.4307L20.6665 12.6453C19.8092 12.5227 19.0665 11.988 18.6812 11.2173L16.2439 6.35067C16.0865 6.03333 15.7879 6 15.6665 6ZM9.26254 28.6667C8.71188 28.6667 8.16521 28.4933 7.69721 28.152C6.88921 27.56 6.49321 26.5827 6.66521 25.5987L7.59321 20.252C7.62788 20.0533 7.55988 19.852 7.41321 19.7107L3.47188 15.924C2.74654 15.2293 2.48654 14.2027 2.79321 13.2493C3.10254 12.2853 3.92121 11.596 4.93054 11.452L10.3812 10.6667C10.5919 10.6373 10.7732 10.508 10.8639 10.324L13.2999 5.45467C13.7492 4.55733 14.6559 4 15.6665 4C16.6772 4 17.5839 4.55733 18.0332 5.45467L20.4705 10.3227C20.5625 10.508 20.7425 10.6373 20.9519 10.6667L26.4025 11.452C27.4119 11.596 28.2305 12.2853 28.5399 13.2493C28.8465 14.2027 28.5852 15.2293 27.8599 15.924L23.9185 19.7107C23.7719 19.852 23.7052 20.0533 23.7399 20.2507L24.6692 25.5987C24.8399 26.584 24.4439 27.5613 23.6345 28.152C22.8145 28.7533 21.7465 28.8347 20.8412 28.3627L15.9705 25.8387C15.7799 25.74 15.5519 25.74 15.3612 25.8387L10.4905 28.364C10.1012 28.5667 9.68121 28.6667 9.26254 28.6667Z" fill="#FD346E"/>
</svg>
